<svg width="1428" height="1151" viewBox="0 0 1428 1151" fill="none" xmlns="http://www.w3.org/2000/svg">
<ellipse cx="759.5" cy="540" rx="467.5" ry="471" fill="#FA554A"/>
<path d="M1390 929.5C1390 945.195 1377.2 957.876 1361.5 957.725L212.961 946.625C203.567 946.535 196 938.894 196 929.5V929.5C196 920.106 203.567 912.465 212.961 912.375L1361.5 901.275C1377.2 901.124 1390 913.805 1390 929.5V929.5Z" fill="black"/>
<path d="M61.9709 310.569C75.7064 295.582 98.9599 294.819 113.652 308.872L861.649 1024.33C870.463 1032.77 870.925 1046.76 862.684 1055.75V1055.75C854.444 1064.75 840.56 1065.39 831.52 1057.21L64.3933 362.618C49.3253 348.975 48.2354 325.556 61.9709 310.569V310.569Z" fill="black"/>
</svg>
