<svg width="239" height="182" viewBox="0 0 239 182" fill="none" xmlns="http://www.w3.org/2000/svg">
<g clip-path="url(#clip0_411_24)">
<rect x="26" y="19" width="195" height="148" stroke="black" stroke-width="8"/>
<line x1="27.7905" y1="54.1818" x2="59.801" y2="22.1713" stroke="black" stroke-width="8"/>
<line x1="195.172" y1="166.551" x2="216.172" y2="145.551" stroke="black" stroke-width="8"/>
<line x1="27.1716" y1="80.551" x2="85.1716" y2="22.551" stroke="black" stroke-width="8"/>
<line x1="27.1716" y1="107.551" x2="112.172" y2="22.551" stroke="black" stroke-width="8"/>
<line x1="131.172" y1="145.551" x2="216.172" y2="60.551" stroke="black" stroke-width="8"/>
<line x1="132.172" y1="167.551" x2="217.172" y2="82.551" stroke="black" stroke-width="8"/>
<line x1="153.172" y1="167.053" x2="216.674" y2="103.551" stroke="black" stroke-width="8"/>
<line x1="174.172" y1="166.303" x2="215.923" y2="124.551" stroke="black" stroke-width="8"/>
<line x1="27.1716" y1="132.807" x2="137.427" y2="22.5513" stroke="black" stroke-width="8"/>
<line x1="27.1716" y1="157.054" x2="161.674" y2="22.5511" stroke="black" stroke-width="8"/>
<line x1="39.1716" y1="167.554" x2="184.175" y2="22.5509" stroke="black" stroke-width="8"/>
<line x1="60.1716" y1="168.554" x2="205.175" y2="23.5509" stroke="black" stroke-width="8"/>
<line x1="85.1716" y1="167.555" x2="216.175" y2="36.5511" stroke="black" stroke-width="8"/>
<path d="M73.0462 -581.757C74.2825 -564.597 96.9289 -555.686 106.257 -552.056C123.228 -545.39 126.768 -551.066 137.839 -544.664C158.125 -532.916 164.7 -503.413 166.273 -496.416C171.106 -474.768 164.812 -471.005 166.273 -437.014C167.509 -409.425 168.296 -390.747 178.917 -373.916C191.842 -353.455 213.083 -345.469 226.345 -340.519C245.845 -333.193 250.228 -337.681 261.13 -329.364C279.842 -315.174 285.012 -288.311 286.417 -281.117C292.205 -251.02 280.236 -244.947 283.27 -210.56C284.226 -199.736 286.81 -170.035 305.411 -147.462C321.145 -128.387 342.724 -121.127 352.839 -117.761C372.226 -111.293 377.958 -115.187 387.624 -106.607C403.583 -92.4821 405.662 -66.1472 406.224 -59.0189C408.359 -32.288 397.963 -27.4698 399.593 1.04321C399.986 8.17145 401.335 27.7741 412.518 47.3768C423.532 66.5835 438.255 75.6918 444.493 79.0579C463.374 89.1563 468.993 81.104 485.571 90.2123C509.847 103.479 519.681 132.652 520.355 134.764C522.715 142.09 522.94 146.314 523.502 197.862C523.896 234.229 523.952 243.206 529.796 247.958C538.057 254.624 554.072 249.806 561.377 238.652C568.008 228.619 564.356 218.257 559.804 182.946C552.836 129.352 557.388 124.27 548.734 104.997C546.036 98.9907 537.101 79.718 518.726 65.9894C491.527 45.7927 473.601 60.0493 455.507 39.9846C445.111 28.4342 442.189 13.9136 438.143 -6.4151C431.512 -39.3503 439.042 -49.6466 433.422 -76.9716C432.074 -83.5058 426.229 -110.435 408.135 -130.829C378.576 -164.095 345.253 -147.396 327.552 -179.077C322.719 -187.723 321.202 -199.076 318.055 -221.781C313.671 -253.66 317.886 -262.57 314.908 -286.727C312.435 -306.462 309.007 -333.985 292.767 -351.673C267.76 -378.932 236.348 -356.689 215.331 -385.07C205.89 -397.809 203.755 -413.781 201.114 -433.318C197.349 -461.435 203.474 -466.715 201.114 -492.72C199.934 -505.921 196.731 -541.166 175.826 -563.277C161.328 -578.655 155.54 -569.349 125.251 -591.13C108.28 -603.208 101.986 -611.986 92.04 -609.61C81.644 -607.168 72.2595 -593.572 73.0462 -581.757Z" fill="#D9D9D9"/>
</g>
<defs>
<clipPath id="clip0_411_24">
<rect width="239" height="182" fill="white"/>
</clipPath>
</defs>
</svg>
