<svg width="398" height="410" viewBox="0 0 398 410" fill="none" xmlns="http://www.w3.org/2000/svg">
<path d="M268.975 226.06C248.727 250.581 223.214 248.968 198.694 228.72L194.298 225.091L208.433 207.972L213.754 212.366C228.328 224.4 241.471 225.915 252.168 212.961C262.865 200.007 258.89 187.387 244.548 175.544C208.229 145.555 159.871 197.052 114.299 159.422C89.778 139.174 83.5581 114.196 103.997 89.444C124.435 64.6918 149.948 66.3055 174.469 86.5531L183.722 94.1937L169.778 111.081L159.599 102.676C145.026 90.6421 131.5 89.5891 120.803 102.543C110.106 115.498 113.699 128.58 128.273 140.614C164.36 170.412 212.528 119.147 258.099 156.777C283.083 177.406 289.031 201.771 268.975 226.06Z" fill="black"/>
<path d="M294.975 341.06C274.727 365.581 249.214 363.968 224.694 343.72L220.298 340.091L234.433 322.972L239.754 327.366C254.328 339.4 267.471 340.915 278.168 327.961C288.865 315.007 284.89 302.387 270.548 290.544C234.229 260.555 185.871 312.052 140.299 274.422C115.778 254.174 109.558 229.196 129.997 204.444C150.435 179.692 175.948 181.305 200.469 201.553L209.722 209.194L195.778 226.081L185.599 217.676C171.026 205.642 157.5 204.589 146.803 217.543C136.106 230.498 139.699 243.58 154.273 255.614C190.36 285.412 238.528 234.147 284.099 271.777C309.083 292.406 315.031 316.771 294.975 341.06Z" fill="black"/>
</svg>
