<svg width="235" height="600" viewBox="0 0 235 600" fill="none" xmlns="http://www.w3.org/2000/svg">
<g clip-path="url(#clip0_411_24)">
<path d="M201.6 308.8C232.2 323.2 249.6 351.4 249.6 391.6V425.8C249.6 486.4 210.6 526 150 526H43.8V106H144.6C205.2 106 244.2 145.6 244.2 206.2V228.4C244.2 266.2 229.2 293.2 201.6 308.8ZM141.6 166H107.4V280H135.6C166.2 280 180.6 265.6 180.6 235V205C180.6 180.4 166.2 166 141.6 166ZM186 427V385C186 354.4 171.6 340 141 340H107.4V466H147C171.6 466 186 451.6 186 427Z" fill="black"/>
<path d="M24 104H118.2C183.6 104 209.4 135.2 209.4 197V216.8C209.4 261.2 196.8 288.8 160.2 300.2C201 311.6 216.6 344 216.6 390.2V425.6C216.6 488.6 186 524 120.6 524H24V104ZM70.8 282.2H106.8C144 282.2 163.2 270.2 163.2 226.4V201.8C163.2 164.6 150.6 146.6 117 146.6H70.8V282.2ZM70.8 481.4H120.6C154.8 481.4 170.4 463.4 170.4 424.4V387.2C170.4 340.4 151.8 324.8 111.6 324.8H70.8V481.4Z" fill="#F8E7D9"/>
</g>
<defs>
<clipPath id="clip0_411_24">
<rect width="235" height="600" fill="white"/>
</clipPath>
</defs>
</svg>
