<svg width="630" height="452" viewBox="0 0 630 452" fill="none" xmlns="http://www.w3.org/2000/svg">
<g clip-path="url(#clip0_408_19)">
<path d="M575.415 206.488L436.362 196.869L549.73 115.775L575.415 206.488Z" fill="#F8E7D9" stroke="black" stroke-width="8"/>
<path d="M247.594 370.791L215.802 291.136L277.946 350.245L247.594 370.791Z" fill="#F8E7D9" stroke="black" stroke-width="8"/>
<path d="M301.178 118.661L213.646 199.448L260.195 89.8054L301.178 118.661Z" fill="#F8E7D9" stroke="black" stroke-width="8"/>
<path d="M333.475 131.809L234.49 198.069L297.454 96.9555L333.475 131.809Z" fill="#F8E7D9" stroke="black" stroke-width="8"/>
<path d="M406.462 325.944L351.954 246.164L444.981 272.28L406.462 325.944Z" fill="#F8E7D9" stroke="black" stroke-width="8"/>
<path d="M275.643 313.647C228.113 326.063 149.601 334.392 42.9092 291.771C93.8336 231.93 143.38 200.348 178.125 182.974C178.126 182.974 178.127 182.973 178.128 182.973L178.135 182.969L178.184 182.945C178.209 182.933 178.241 182.917 178.281 182.898C178.317 182.881 178.358 182.86 178.406 182.837C178.608 182.74 178.918 182.592 179.333 182.399C180.164 182.014 181.418 181.447 183.074 180.74C186.386 179.325 191.308 177.347 197.685 175.13C210.442 170.693 229.008 165.298 252.147 161.51C298.419 153.935 362.946 152.793 435.909 178.575C450.162 183.612 453.863 188.088 455 192.335C455.779 195.27 455.42 198.985 453.531 203.562C451.647 208.131 448.35 213.274 443.707 218.84C434.425 229.967 420.191 242.272 402.704 254.424C367.744 278.717 320.463 301.931 275.643 313.647ZM275.643 313.647L276.654 317.517L275.643 313.647Z" fill="#F8E7D9" stroke="black" stroke-width="8"/>
<line y1="-4" x2="48.5441" y2="-4" transform="matrix(-0.96425 -0.264996 0.698085 -0.716015 232.088 326.757)" stroke="black" stroke-width="8"/>
<line y1="-4" x2="31.8466" y2="-4" transform="matrix(-0.96425 -0.264996 0.698085 -0.716015 339.945 163.822)" stroke="black" stroke-width="8"/>
<line y1="-4" x2="87.9573" y2="-4" transform="matrix(-0.96425 -0.264996 0.698085 -0.716015 265.451 318.201)" stroke="black" stroke-width="8"/>
<line y1="-4" x2="128.903" y2="-4" transform="matrix(-0.96425 -0.264996 0.698085 -0.716015 299.483 308.967)" stroke="black" stroke-width="8"/>
<line y1="-4" x2="158.95" y2="-4" transform="matrix(-0.96425 -0.264996 0.698085 -0.716015 355.792 226.133)" stroke="black" stroke-width="8"/>
<line y1="-4" x2="128.903" y2="-4" transform="matrix(-0.96425 -0.264996 0.698085 -0.716015 353.921 210.343)" stroke="black" stroke-width="8"/>
<line y1="-4" x2="96.3011" y2="-4" transform="matrix(-0.96425 -0.264996 0.698085 -0.716015 349.055 194.893)" stroke="black" stroke-width="8"/>
<line y1="-4" x2="63.3167" y2="-4" transform="matrix(-0.96425 -0.264996 0.698085 -0.716015 343.87 179.528)" stroke="black" stroke-width="8"/>
<line y1="-4" x2="167.203" y2="-4" transform="matrix(-0.96425 -0.264996 0.698085 -0.716015 331.316 300.331)" stroke="black" stroke-width="8"/>
<line y1="-4" x2="203.974" y2="-4" transform="matrix(-0.96425 -0.264996 0.698085 -0.716015 361.879 292.039)" stroke="black" stroke-width="8"/>
<line y1="-4" x2="219.898" y2="-4" transform="matrix(-0.96425 -0.264996 0.698085 -0.716015 372.693 279.52)" stroke="black" stroke-width="8"/>
<line y1="-4" x2="219.898" y2="-4" transform="matrix(-0.96425 -0.264996 0.698085 -0.716015 369.716 263.558)" stroke="black" stroke-width="8"/>
<line y1="-4" x2="198.668" y2="-4" transform="matrix(-0.96425 -0.264996 0.698085 -0.716015 363.411 245.303)" stroke="black" stroke-width="8"/>
<path d="M101.963 262.3L92.713 249.2H97.713L104.613 259.3L111.463 249.2H116.413L107.163 262.3L116.913 276H111.913L104.613 265.3L97.213 276H92.263L101.963 262.3Z" fill="black"/>
</g>
<defs>
<clipPath id="clip0_408_19">
<rect width="630" height="452" fill="white"/>
</clipPath>
</defs>
</svg>
