<svg width="594" height="531" viewBox="0 0 594 531" fill="none" xmlns="http://www.w3.org/2000/svg">
<g clip-path="url(#clip0_411_26)">
<path d="M280.692 259.499C269.837 264.242 259.395 264.893 249.366 261.455C239.5 257.902 230.697 250.656 222.956 239.718L214.984 228.454L240.451 210.43L249.636 223.408C256.684 233.367 264.861 235.053 274.166 228.467C283.471 221.882 284.485 213.447 277.206 203.162C272.7 196.795 267.024 192.236 260.177 189.486C253.215 186.573 242.9 184.808 229.231 184.19C212.17 183.279 198.778 180.628 189.056 176.238C179.333 171.848 171.121 164.918 164.42 155.45C156.91 144.838 153.096 134.429 152.978 124.222C153.023 113.899 156.947 104.384 164.75 95.6761L154.179 80.7386L176.218 65.1411L186.789 80.0786C197.644 75.3365 208.005 74.7423 217.87 78.296C227.621 81.6865 236.366 88.8506 244.107 99.7885L247.573 104.686L222.106 122.71L217.427 116.098C210.263 105.977 202.192 104.093 193.213 110.448C184.235 116.802 183.211 124.877 190.143 134.672C194.303 140.549 199.806 144.863 206.653 147.613C213.384 150.2 223.641 151.883 237.425 152.664C254.602 153.739 268.109 156.553 277.947 161.106C287.67 165.496 295.997 172.589 302.929 182.384C310.786 193.485 314.725 204.418 314.748 215.183C314.819 225.669 310.813 235.242 302.731 243.902L314.862 261.043L292.823 276.641L280.692 259.499Z" fill="#F8E7D9"/>
<path d="M183.411 490.448L108.967 368.587L126.205 358.056L242.981 424.527L243.663 424.11C241.742 421.221 239.486 417.912 236.895 414.182C234.305 410.453 231.771 406.688 229.294 402.889C226.747 398.976 224.605 395.598 222.867 392.753L181.162 324.484L194.645 316.247L269.089 438.108L252.363 448.325L134.696 381.931L134.014 382.348C136.049 385.167 138.374 388.59 140.99 392.617C143.65 396.46 146.254 400.338 148.8 404.251C151.461 408.094 153.729 411.552 155.606 414.624L196.894 482.211L183.411 490.448ZM285.303 428.203L278.109 416.426L321.972 389.631L329.166 401.407L285.303 428.203ZM293.178 391.987C288.285 394.976 283.244 396.571 278.055 396.772C272.91 396.791 267.936 395.298 263.133 392.295C258.329 389.292 254.016 384.661 250.193 378.403C244.494 369.073 242.425 360.572 243.988 352.899C245.594 345.042 250.38 338.682 258.345 333.816C263.237 330.827 268.256 329.324 273.401 329.305C278.59 329.104 283.587 330.505 288.39 333.508C293.237 336.328 297.572 340.867 301.395 347.125C307.095 356.455 309.142 365.048 307.535 372.904C305.928 380.76 301.142 387.121 293.178 391.987ZM287.472 381.879C292.478 378.821 295.089 375.039 295.305 370.532C295.451 365.912 293.613 360.472 289.79 354.214C285.897 347.843 281.966 343.838 277.997 342.2C273.959 340.449 269.436 341.102 264.43 344.161C259.537 347.149 256.891 350.875 256.492 355.337C256.024 359.686 257.736 365.046 261.629 371.418C265.452 377.676 269.452 381.794 273.629 383.773C277.851 385.569 282.465 384.938 287.472 381.879Z" fill="#F8E7D9"/>
<path d="M469.41 133.731C482.257 138.193 484.077 149.411 479.943 161.313L465.965 201.555C461.831 213.458 453.449 221.132 440.602 216.67C427.944 212.273 426.124 201.055 430.258 189.153L444.235 148.911C448.369 137.009 456.751 129.334 469.41 133.731ZM524.511 153.081L530.179 155.049L432.034 269.377L426.367 267.408L524.511 153.081ZM467.507 139.209C458.438 136.06 453.111 142.255 450.158 150.756L435.983 191.565C433.096 199.878 433.436 208.041 442.505 211.191C451.385 214.275 456.901 208.146 459.788 199.833L473.963 159.025C476.915 150.523 476.386 142.294 467.507 139.209ZM516.379 206.362C529.226 210.824 530.792 222.166 526.658 234.068L512.877 273.743C508.743 285.646 500.484 293.575 487.637 289.113C474.79 284.651 473.036 273.243 477.17 261.341L490.95 221.666C495.084 209.764 503.532 201.9 516.379 206.362ZM514.41 212.03C505.531 208.946 500.08 214.886 497.127 223.388L483.084 263.819C480.197 272.132 480.66 280.55 489.54 283.634C498.609 286.784 504.002 280.4 506.889 272.087L520.932 231.656C523.885 223.154 523.479 215.18 514.41 212.03Z" fill="#F8E7D9"/>
</g>
<defs>
<clipPath id="clip0_411_26">
<rect width="594" height="531" fill="white"/>
</clipPath>
</defs>
</svg>
