<svg width="297" height="690" viewBox="0 0 297 690" fill="none" xmlns="http://www.w3.org/2000/svg">
<rect x="237.232" y="51.8184" width="610.909" height="148.96" transform="rotate(90 237.232 51.8184)" fill="#FA554A"/>
<path d="M202.56 197.566L144.957 157.316L142.775 173.604L162.242 215.763L154.547 219.237L100.685 102.592L108.38 99.1182L136.85 160.774L146.523 81.9022L154.553 78.2778L146.179 147.703L210.59 193.941L202.56 197.566Z" fill="#F8E7D9"/>
<path d="M141.995 306.479L170.326 247.2C178.398 230.311 192.148 221.543 209.773 229.776C227.731 238.165 229.61 254.235 221.538 271.124L193.208 330.403C185.136 347.293 171.386 356.061 153.428 347.672C135.803 339.438 133.924 323.369 141.995 306.479ZM178.212 250.276L149.407 310.549C143.392 323.133 143.949 334.736 156.752 340.717C169.721 346.776 179.307 339.911 185.322 327.327L214.127 267.055C220.142 254.47 219.419 242.789 206.449 236.731C193.646 230.75 184.226 237.692 178.212 250.276Z" fill="#F8E7D9"/>
<path d="M127.966 364.253L100.969 380.197L144.302 458.304C152.678 473.586 157.263 486.848 141.191 496.765L139.77 497.604L135.788 491.013C148.26 483.647 143.456 473.921 137.134 462.749L90.1976 377.615L131.404 353.28L197.775 463.136L190.355 467.518L127.966 364.253Z" fill="#F8E7D9"/>
<path d="M170.512 604.073L135.621 584.552L115.898 606.089L109.176 602.328L197.529 504.452L208.252 510.452L169.355 635.998L161.992 631.879L170.512 604.073ZM197.822 515.753L140.386 578.812L173.036 597.08L197.822 515.753Z" fill="#F8E7D9"/>
</svg>
