<svg width="322" height="750" viewBox="0 0 322 750" fill="none" xmlns="http://www.w3.org/2000/svg">
<g clip-path="url(#clip0_411_24)">
<path d="M326.2 600H250L232 570.6C209.2 594.6 182.8 606 152.8 606C100.6 606 59.2 571.8 59.2 500.4C59.2 450.6 79.6 419.4 115 382.2L106 367.8C90.4 342 72.4 308.4 72.4 268.8C72.4 214.2 109 174 165.4 174C218.8 174 254.8 209.4 254.8 264.6C254.8 309.6 241 331.2 189.4 387.6L229.6 450C234.4 433.2 238.6 413.4 243.4 390H307C296.2 439.8 284.2 480 269.2 511.8L326.2 600ZM166 231C145.6 231 133.6 246 133.6 268.8C133.6 287.4 140.2 310.2 158.2 339C184 313.2 196.6 295.2 196.6 268.8C196.6 244.2 185.8 231 166 231ZM164.8 546C179.2 546 191.2 540.6 202.6 523.2L147.4 435C130.6 456 122.8 472.2 122.8 497.4C122.8 534 141.4 546 164.8 546Z" fill="black"/>
<path d="M214.4 222.6H147.8C112.4 222.6 93.8 241.2 93.8 282V303C93.8 339 111.8 358.8 142.4 360H189.8V313.2H236V360H256.4V402H236V546.6C236 567.6 236.6 583.8 245 600H197.6C192.8 589.8 190.4 581.4 189.8 563.4C177.8 590.4 154.4 604.2 123.8 604.2C71.6 604.2 47.6 567 47.6 507.6V466.8C47.6 425.4 62.6 392.4 97.4 379.2C63.2 367.2 47.6 335.4 47.6 293.4V283.8C47.6 217.2 80 180 146.6 180H214.4V222.6ZM189.8 402H146C111.2 403.2 93.8 424.8 93.8 465.6V504C93.8 541.2 110 561.6 142.4 561.6C169.4 561.6 188.6 546 189.8 513.6V402Z" fill="#F8E7D9"/>
</g>
<defs>
<clipPath id="clip0_411_24">
<rect width="322" height="750" fill="white"/>
</clipPath>
</defs>
</svg>
