<svg width="595" height="442" viewBox="0 0 595 442" fill="none" xmlns="http://www.w3.org/2000/svg">
<g clip-path="url(#clip0_408_19)">
<path d="M88.5779 319.4C85.0769 335.573 98.1942 349.186 113.222 364.751C117.178 368.841 131.169 382.781 155.518 394.041C172.232 401.754 187.905 408.995 210.178 408.514C232.063 408.038 250.867 407.637 267.889 399.238C270.803 397.798 278.628 393.69 283.563 396.249C288.151 398.614 286.12 404.532 288.706 407.764C299.745 421.491 388.69 378.541 385.694 362.182C385.06 358.669 380.352 357.198 380.768 352.257C381.333 345.731 390.192 340.451 393.256 338.532C420.236 321.729 442.759 289.425 443.961 287.698C454.635 272.177 457.389 258.169 461.768 235.997C464.296 223.226 466.836 209.612 464.403 192.826C462.158 177.394 459.762 161.042 446.647 153.073C440.478 149.32 429.547 145.951 387.236 157.382C356.677 165.647 333.875 175.119 312.961 184.05C266.028 204.084 242.548 214.13 220.562 225.719C201.136 235.946 179.726 249.698 136.929 277.19C100.989 300.27 91.1011 307.782 88.5779 319.4Z" fill="black"/>
<ellipse cx="197.079" cy="57.9289" rx="197.079" ry="57.9289" transform="matrix(0.906406 -0.422407 0.398665 0.917097 61.3889 267.216)" fill="#F8E7D9"/>
</g>
<defs>
<clipPath id="clip0_408_19">
<rect width="595" height="442" fill="white"/>
</clipPath>
</defs>
</svg>
