<svg width="460" height="619" viewBox="0 0 460 619" fill="none" xmlns="http://www.w3.org/2000/svg">
<g clip-path="url(#clip0_405_18)">
<rect x="81" y="233" width="320" height="386" rx="120" fill="black"/>
<ellipse cx="238.5" cy="347" rx="103.5" ry="76" fill="#F8E7D9"/>
<path d="M83.9969 250.317L129.848 244.162L100.362 207.618L122.92 193.06L143.474 235.886L168.591 195.243L189.595 212.209L155.143 245.312L201.334 256.399L191.845 281.514L149.918 260.373L153.543 306.494L126.749 305.29L134.228 259.269L90.8088 276.259L83.9969 250.317ZM182.452 329.845L228.303 323.69L198.817 287.146L221.375 272.587L241.929 315.414L267.046 274.771L288.05 291.737L253.598 324.839L299.789 335.927L290.3 361.042L248.373 339.901L251.997 386.022L225.203 384.818L232.683 338.797L189.264 355.787L182.452 329.845Z" fill="#FA554A"/>
<path d="M232.819 156L264.619 122.4L218.719 112.5L227.119 87L270.019 107.4L264.019 60H291.019L285.019 107.4L327.919 87L336.319 112.5L290.419 122.4L322.219 156L300.619 171.9L277.519 131.4L254.419 171.9L232.819 156Z" fill="#F8E7D9"/>
</g>
<defs>
<clipPath id="clip0_405_18">
<rect width="460" height="619" fill="white"/>
</clipPath>
</defs>
</svg>
