<svg width="612" height="419" viewBox="0 0 612 419" fill="none" xmlns="http://www.w3.org/2000/svg">
<rect x="252" y="380" width="107" height="27" fill="black"/>
<path d="M376 209C376 284.138 315.531 345 241 345C166.469 345 106 284.138 106 209C106 133.862 166.469 73 241 73C315.531 73 376 133.862 376 209Z" stroke="black" stroke-width="8"/>
<path d="M359 209C359 274.753 306.139 328 241 328C175.861 328 123 274.753 123 209C123 143.247 175.861 90 241 90C306.139 90 359 143.247 359 209Z" stroke="black" stroke-width="8"/>
<path d="M343 209C343 265.921 297.298 312 241 312C184.702 312 139 265.921 139 209C139 152.079 184.702 106 241 106C297.298 106 343 152.079 343 209Z" stroke="black" stroke-width="8"/>
<path d="M326 209C326 256.539 287.902 295 241 295C194.098 295 156 256.539 156 209C156 161.461 194.098 123 241 123C287.902 123 326 161.461 326 209Z" stroke="black" stroke-width="8"/>
<path d="M516 152C516 227.138 455.531 288 381 288C306.469 288 246 227.138 246 152C246 76.8622 306.469 16 381 16C455.531 16 516 76.8622 516 152Z" stroke="black" stroke-width="8"/>
<path d="M499 152C499 217.753 446.139 271 381 271C315.861 271 263 217.753 263 152C263 86.2473 315.861 33 381 33C446.139 33 499 86.2473 499 152Z" stroke="black" stroke-width="8"/>
<path d="M483 152C483 208.921 437.298 255 381 255C324.702 255 279 208.921 279 152C279 95.0792 324.702 49 381 49C437.298 49 483 95.0792 483 152Z" stroke="black" stroke-width="8"/>
<path d="M466 152C466 199.539 427.902 238 381 238C334.098 238 296 199.539 296 152C296 104.461 334.098 66 381 66C427.902 66 466 104.461 466 152Z" stroke="black" stroke-width="8"/>
<path d="M551 206C551 303.754 441.086 383 305.5 383C169.914 383 60 303.754 60 206C201.408 206 169.914 206 305.5 206C441.086 206 397.808 206 551 206Z" fill="black"/>
</svg>
