<svg width="312" height="117" viewBox="0 0 312 117" fill="none" xmlns="http://www.w3.org/2000/svg">
<ellipse cx="95.972" cy="32.7972" rx="5.94118" ry="2.00395" transform="rotate(-7.38718 95.972 32.7972)" fill="#F8E7D9"/>
<ellipse cx="108.548" cy="37.3841" rx="5.94118" ry="2.00395" transform="rotate(-7.38718 108.548 37.3841)" fill="#F8E7D9"/>
<ellipse cx="91.1239" cy="41.6121" rx="5.94118" ry="2.00395" transform="rotate(-7.38718 91.1239 41.6121)" fill="#F8E7D9"/>
<ellipse cx="66.0106" cy="32.7439" rx="5.94118" ry="2.00395" transform="rotate(-7.38718 66.0106 32.7439)" fill="#F8E7D9"/>
<ellipse cx="78.587" cy="37.3309" rx="5.94118" ry="2.00395" transform="rotate(-7.38718 78.587 37.3309)" fill="#F8E7D9"/>
<ellipse cx="61.1625" cy="41.5589" rx="5.94118" ry="2.00395" transform="rotate(-7.38718 61.1625 41.5589)" fill="#F8E7D9"/>
<ellipse cx="80.1066" cy="49.0511" rx="5.94118" ry="2.00395" transform="rotate(-7.38718 80.1066 49.0511)" fill="#F8E7D9"/>
<ellipse cx="92.683" cy="53.638" rx="5.94118" ry="2.00395" transform="rotate(-7.38718 92.683 53.638)" fill="#F8E7D9"/>
<ellipse cx="75.2587" cy="57.866" rx="5.94118" ry="2.00395" transform="rotate(-7.38718 75.2587 57.866)" fill="#F8E7D9"/>
<ellipse cx="50.1451" cy="48.9979" rx="5.94118" ry="2.00395" transform="rotate(-7.38718 50.1451 48.9979)" fill="#F8E7D9"/>
<ellipse cx="62.7218" cy="53.5848" rx="5.94118" ry="2.00395" transform="rotate(-7.38718 62.7218 53.5848)" fill="#F8E7D9"/>
<ellipse cx="45.2972" cy="57.8128" rx="5.94118" ry="2.00395" transform="rotate(-7.38718 45.2972 57.8128)" fill="#F8E7D9"/>
<ellipse cx="161.668" cy="31.2225" rx="5.94118" ry="2.00395" transform="rotate(-7.38718 161.668 31.2225)" fill="#F8E7D9"/>
<ellipse cx="174.244" cy="35.8099" rx="5.94118" ry="2.00395" transform="rotate(-7.38718 174.244 35.8099)" fill="#F8E7D9"/>
<ellipse cx="156.82" cy="40.0379" rx="5.94118" ry="2.00395" transform="rotate(-7.38718 156.82 40.0379)" fill="#F8E7D9"/>
<ellipse cx="131.706" cy="31.1692" rx="5.94118" ry="2.00395" transform="rotate(-7.38718 131.706 31.1692)" fill="#F8E7D9"/>
<ellipse cx="144.283" cy="35.7566" rx="5.94118" ry="2.00395" transform="rotate(-7.38718 144.283 35.7566)" fill="#F8E7D9"/>
<ellipse cx="126.858" cy="39.9847" rx="5.94118" ry="2.00395" transform="rotate(-7.38718 126.858 39.9847)" fill="#F8E7D9"/>
<ellipse cx="145.802" cy="47.4764" rx="5.94118" ry="2.00395" transform="rotate(-7.38718 145.802 47.4764)" fill="#F8E7D9"/>
<ellipse cx="158.379" cy="52.0638" rx="5.94118" ry="2.00395" transform="rotate(-7.38718 158.379 52.0638)" fill="#F8E7D9"/>
<ellipse cx="140.954" cy="56.2918" rx="5.94118" ry="2.00395" transform="rotate(-7.38718 140.954 56.2918)" fill="#F8E7D9"/>
<ellipse cx="115.841" cy="47.4231" rx="5.94118" ry="2.00395" transform="rotate(-7.38718 115.841 47.4231)" fill="#F8E7D9"/>
<ellipse cx="128.417" cy="52.0101" rx="5.94118" ry="2.00395" transform="rotate(-7.38718 128.417 52.0101)" fill="#F8E7D9"/>
<ellipse cx="110.993" cy="56.2381" rx="5.94118" ry="2.00395" transform="rotate(-7.38718 110.993 56.2381)" fill="#F8E7D9"/>
<ellipse cx="64.0826" cy="64.0818" rx="5.94118" ry="2.00395" transform="rotate(-7.38718 64.0826 64.0818)" fill="#F8E7D9"/>
<ellipse cx="76.659" cy="68.6688" rx="5.94118" ry="2.00395" transform="rotate(-7.38718 76.659 68.6688)" fill="#F8E7D9"/>
<ellipse cx="59.2345" cy="72.8968" rx="5.94118" ry="2.00395" transform="rotate(-7.38718 59.2345 72.8968)" fill="#F8E7D9"/>
<ellipse cx="34.1212" cy="64.0286" rx="5.94118" ry="2.00395" transform="rotate(-7.38718 34.1212 64.0286)" fill="#F8E7D9"/>
<ellipse cx="46.6976" cy="68.6155" rx="5.94118" ry="2.00395" transform="rotate(-7.38718 46.6976 68.6155)" fill="#F8E7D9"/>
<ellipse cx="29.2731" cy="72.8436" rx="5.94118" ry="2.00395" transform="rotate(-7.38718 29.2731 72.8436)" fill="#F8E7D9"/>
<ellipse cx="48.2171" cy="80.3357" rx="5.94118" ry="2.00395" transform="rotate(-7.38718 48.2171 80.3357)" fill="#F8E7D9"/>
<ellipse cx="60.7938" cy="84.9227" rx="5.94118" ry="2.00395" transform="rotate(-7.38718 60.7938 84.9227)" fill="#F8E7D9"/>
<ellipse cx="43.3692" cy="89.1507" rx="5.94118" ry="2.00395" transform="rotate(-7.38718 43.3692 89.1507)" fill="#F8E7D9"/>
<ellipse cx="18.2557" cy="80.2825" rx="5.94118" ry="2.00395" transform="rotate(-7.38718 18.2557 80.2825)" fill="#F8E7D9"/>
<ellipse cx="30.8324" cy="84.8694" rx="5.94118" ry="2.00395" transform="rotate(-7.38718 30.8324 84.8694)" fill="#F8E7D9"/>
<ellipse cx="13.4078" cy="89.0975" rx="5.94118" ry="2.00395" transform="rotate(-7.38718 13.4078 89.0975)" fill="#F8E7D9"/>
<ellipse cx="129.778" cy="62.5076" rx="5.94118" ry="2.00395" transform="rotate(-7.38718 129.778 62.5076)" fill="#F8E7D9"/>
<ellipse cx="142.355" cy="67.0945" rx="5.94118" ry="2.00395" transform="rotate(-7.38718 142.355 67.0945)" fill="#F8E7D9"/>
<ellipse cx="124.93" cy="71.3226" rx="5.94118" ry="2.00395" transform="rotate(-7.38718 124.93 71.3226)" fill="#F8E7D9"/>
<ellipse cx="99.817" cy="62.4539" rx="5.94118" ry="2.00395" transform="rotate(-7.38718 99.817 62.4539)" fill="#F8E7D9"/>
<ellipse cx="112.393" cy="67.0413" rx="5.94118" ry="2.00395" transform="rotate(-7.38718 112.393 67.0413)" fill="#F8E7D9"/>
<ellipse cx="94.9689" cy="71.2693" rx="5.94118" ry="2.00395" transform="rotate(-7.38718 94.9689 71.2693)" fill="#F8E7D9"/>
<ellipse cx="113.913" cy="78.761" rx="5.94118" ry="2.00395" transform="rotate(-7.38718 113.913 78.761)" fill="#F8E7D9"/>
<ellipse cx="126.49" cy="83.3484" rx="5.94118" ry="2.00395" transform="rotate(-7.38718 126.49 83.3484)" fill="#F8E7D9"/>
<ellipse cx="109.065" cy="87.5765" rx="5.94118" ry="2.00395" transform="rotate(-7.38718 109.065 87.5765)" fill="#F8E7D9"/>
<ellipse cx="83.9515" cy="78.7078" rx="5.94118" ry="2.00395" transform="rotate(-7.38718 83.9515 78.7078)" fill="#F8E7D9"/>
<ellipse cx="96.5282" cy="83.2952" rx="5.94118" ry="2.00395" transform="rotate(-7.38718 96.5282 83.2952)" fill="#F8E7D9"/>
<ellipse cx="79.1036" cy="87.5228" rx="5.94118" ry="2.00395" transform="rotate(-7.38718 79.1036 87.5228)" fill="#F8E7D9"/>
<ellipse cx="221.511" cy="30.7181" rx="5.94118" ry="2.00395" transform="rotate(-7.38718 221.511 30.7181)" fill="#F8E7D9"/>
<ellipse cx="234.088" cy="35.305" rx="5.94118" ry="2.00395" transform="rotate(-7.38718 234.088 35.305)" fill="#F8E7D9"/>
<ellipse cx="216.663" cy="39.533" rx="5.94118" ry="2.00395" transform="rotate(-7.38718 216.663 39.533)" fill="#F8E7D9"/>
<ellipse cx="191.55" cy="30.6644" rx="5.94118" ry="2.00395" transform="rotate(-7.38718 191.55 30.6644)" fill="#F8E7D9"/>
<ellipse cx="204.126" cy="35.2518" rx="5.94118" ry="2.00395" transform="rotate(-7.38718 204.126 35.2518)" fill="#F8E7D9"/>
<ellipse cx="186.702" cy="39.4798" rx="5.94118" ry="2.00395" transform="rotate(-7.38718 186.702 39.4798)" fill="#F8E7D9"/>
<ellipse cx="205.646" cy="46.9715" rx="5.94118" ry="2.00395" transform="rotate(-7.38718 205.646 46.9715)" fill="#F8E7D9"/>
<ellipse cx="218.223" cy="51.5589" rx="5.94118" ry="2.00395" transform="rotate(-7.38718 218.223 51.5589)" fill="#F8E7D9"/>
<ellipse cx="200.798" cy="55.7869" rx="5.94118" ry="2.00395" transform="rotate(-7.38718 200.798 55.7869)" fill="#F8E7D9"/>
<ellipse cx="175.684" cy="46.9183" rx="5.94118" ry="2.00395" transform="rotate(-7.38718 175.684 46.9183)" fill="#F8E7D9"/>
<ellipse cx="188.261" cy="51.5057" rx="5.94118" ry="2.00395" transform="rotate(-7.38718 188.261 51.5057)" fill="#F8E7D9"/>
<ellipse cx="170.837" cy="55.7337" rx="5.94118" ry="2.00395" transform="rotate(-7.38718 170.837 55.7337)" fill="#F8E7D9"/>
<ellipse cx="287.207" cy="29.1434" rx="5.94118" ry="2.00395" transform="rotate(-7.38718 287.207 29.1434)" fill="#F8E7D9"/>
<ellipse cx="299.784" cy="33.7303" rx="5.94118" ry="2.00395" transform="rotate(-7.38718 299.784 33.7303)" fill="#F8E7D9"/>
<ellipse cx="282.359" cy="37.9583" rx="5.94118" ry="2.00395" transform="rotate(-7.38718 282.359 37.9583)" fill="#F8E7D9"/>
<ellipse cx="257.246" cy="29.0901" rx="5.94118" ry="2.00395" transform="rotate(-7.38718 257.246 29.0901)" fill="#F8E7D9"/>
<ellipse cx="269.822" cy="33.6771" rx="5.94118" ry="2.00395" transform="rotate(-7.38718 269.822 33.6771)" fill="#F8E7D9"/>
<ellipse cx="252.398" cy="37.9051" rx="5.94118" ry="2.00395" transform="rotate(-7.38718 252.398 37.9051)" fill="#F8E7D9"/>
<ellipse cx="271.342" cy="45.3973" rx="5.94118" ry="2.00395" transform="rotate(-7.38718 271.342 45.3973)" fill="#F8E7D9"/>
<ellipse cx="283.918" cy="49.9842" rx="5.94118" ry="2.00395" transform="rotate(-7.38718 283.918 49.9842)" fill="#F8E7D9"/>
<ellipse cx="266.494" cy="54.2122" rx="5.94118" ry="2.00395" transform="rotate(-7.38718 266.494 54.2122)" fill="#F8E7D9"/>
<ellipse cx="241.38" cy="45.344" rx="5.94118" ry="2.00395" transform="rotate(-7.38718 241.38 45.344)" fill="#F8E7D9"/>
<ellipse cx="253.957" cy="49.931" rx="5.94118" ry="2.00395" transform="rotate(-7.38718 253.957 49.931)" fill="#F8E7D9"/>
<ellipse cx="236.532" cy="54.159" rx="5.94118" ry="2.00395" transform="rotate(-7.38718 236.532 54.159)" fill="#F8E7D9"/>
<ellipse cx="189.622" cy="62.0027" rx="5.94118" ry="2.00395" transform="rotate(-7.38718 189.622 62.0027)" fill="#F8E7D9"/>
<ellipse cx="202.199" cy="66.5897" rx="5.94118" ry="2.00395" transform="rotate(-7.38718 202.199 66.5897)" fill="#F8E7D9"/>
<ellipse cx="184.774" cy="70.8177" rx="5.94118" ry="2.00395" transform="rotate(-7.38718 184.774 70.8177)" fill="#F8E7D9"/>
<ellipse cx="159.661" cy="61.949" rx="5.94118" ry="2.00395" transform="rotate(-7.38718 159.661 61.949)" fill="#F8E7D9"/>
<ellipse cx="172.237" cy="66.5364" rx="5.94118" ry="2.00395" transform="rotate(-7.38718 172.237 66.5364)" fill="#F8E7D9"/>
<ellipse cx="154.813" cy="70.7645" rx="5.94118" ry="2.00395" transform="rotate(-7.38718 154.813 70.7645)" fill="#F8E7D9"/>
<ellipse cx="173.756" cy="78.2566" rx="5.94118" ry="2.00395" transform="rotate(-7.38718 173.756 78.2566)" fill="#F8E7D9"/>
<ellipse cx="186.333" cy="82.8436" rx="5.94118" ry="2.00395" transform="rotate(-7.38718 186.333 82.8436)" fill="#F8E7D9"/>
<ellipse cx="168.909" cy="87.0716" rx="5.94118" ry="2.00395" transform="rotate(-7.38718 168.909 87.0716)" fill="#F8E7D9"/>
<ellipse cx="143.795" cy="78.2029" rx="5.94118" ry="2.00395" transform="rotate(-7.38718 143.795 78.2029)" fill="#F8E7D9"/>
<ellipse cx="156.372" cy="82.7903" rx="5.94118" ry="2.00395" transform="rotate(-7.38718 156.372 82.7903)" fill="#F8E7D9"/>
<ellipse cx="138.947" cy="87.0184" rx="5.94118" ry="2.00395" transform="rotate(-7.38718 138.947 87.0184)" fill="#F8E7D9"/>
<ellipse cx="255.318" cy="60.428" rx="5.94118" ry="2.00395" transform="rotate(-7.38718 255.318 60.428)" fill="#F8E7D9"/>
<ellipse cx="267.894" cy="65.0149" rx="5.94118" ry="2.00395" transform="rotate(-7.38718 267.894 65.0149)" fill="#F8E7D9"/>
<ellipse cx="250.47" cy="69.2435" rx="5.94118" ry="2.00395" transform="rotate(-7.38718 250.47 69.2435)" fill="#F8E7D9"/>
<ellipse cx="225.356" cy="60.3748" rx="5.94118" ry="2.00395" transform="rotate(-7.38718 225.356 60.3748)" fill="#F8E7D9"/>
<ellipse cx="237.933" cy="64.9617" rx="5.94118" ry="2.00395" transform="rotate(-7.38718 237.933 64.9617)" fill="#F8E7D9"/>
<ellipse cx="220.508" cy="69.1898" rx="5.94118" ry="2.00395" transform="rotate(-7.38718 220.508 69.1898)" fill="#F8E7D9"/>
<ellipse cx="239.452" cy="76.6819" rx="5.94118" ry="2.00395" transform="rotate(-7.38718 239.452 76.6819)" fill="#F8E7D9"/>
<ellipse cx="252.029" cy="81.2689" rx="5.94118" ry="2.00395" transform="rotate(-7.38718 252.029 81.2689)" fill="#F8E7D9"/>
<ellipse cx="234.604" cy="85.4969" rx="5.94118" ry="2.00395" transform="rotate(-7.38718 234.604 85.4969)" fill="#F8E7D9"/>
<ellipse cx="209.491" cy="76.6287" rx="5.94118" ry="2.00395" transform="rotate(-7.38718 209.491 76.6287)" fill="#F8E7D9"/>
<ellipse cx="222.067" cy="81.2156" rx="5.94118" ry="2.00395" transform="rotate(-7.38718 222.067 81.2156)" fill="#F8E7D9"/>
<ellipse cx="204.643" cy="85.4437" rx="5.94118" ry="2.00395" transform="rotate(-7.38718 204.643 85.4437)" fill="#F8E7D9"/>
</svg>
