<svg width="350" height="611" viewBox="0 0 350 611" fill="none" xmlns="http://www.w3.org/2000/svg">
<ellipse cx="88.5864" cy="70.8172" rx="5.18106" ry="14.8259" transform="rotate(-8.7583 88.5864 70.8172)" fill="#F8E7D9"/>
<ellipse cx="105.773" cy="114.322" rx="5.18106" ry="14.8259" transform="rotate(-8.7583 105.773 114.322)" fill="#F8E7D9"/>
<ellipse cx="92.611" cy="130.967" rx="5.18106" ry="14.8259" transform="rotate(-8.7583 92.611 130.967)" fill="#F8E7D9"/>
<ellipse cx="58.5844" cy="46.2088" rx="5.18106" ry="14.8259" transform="rotate(-8.7583 58.5844 46.2088)" fill="#F8E7D9"/>
<ellipse cx="75.7712" cy="89.7122" rx="5.18106" ry="14.8259" transform="rotate(-8.7583 75.7712 89.7122)" fill="#F8E7D9"/>
<ellipse cx="62.6088" cy="106.358" rx="5.18106" ry="14.8259" transform="rotate(-8.7583 62.6088 106.358)" fill="#F8E7D9"/>
<ellipse cx="89.0847" cy="176.129" rx="5.18106" ry="14.8259" transform="rotate(-8.7583 89.0847 176.129)" fill="#F8E7D9"/>
<ellipse cx="106.272" cy="219.637" rx="5.18106" ry="14.8259" transform="rotate(-8.7583 106.272 219.637)" fill="#F8E7D9"/>
<ellipse cx="93.1098" cy="236.281" rx="5.18106" ry="14.8259" transform="rotate(-8.7583 93.1098 236.281)" fill="#F8E7D9"/>
<ellipse cx="59.0825" cy="151.519" rx="5.18106" ry="14.8259" transform="rotate(-8.7583 59.0825 151.519)" fill="#F8E7D9"/>
<ellipse cx="76.2697" cy="195.027" rx="5.18106" ry="14.8259" transform="rotate(-8.7583 76.2697 195.027)" fill="#F8E7D9"/>
<ellipse cx="63.1074" cy="211.672" rx="5.18106" ry="14.8259" transform="rotate(-8.7583 63.1074 211.672)" fill="#F8E7D9"/>
<ellipse cx="152.67" cy="112.482" rx="5.18106" ry="14.8259" transform="rotate(-8.7583 152.67 112.482)" fill="#F8E7D9"/>
<ellipse cx="169.858" cy="155.994" rx="5.18106" ry="14.8259" transform="rotate(-8.7583 169.858 155.994)" fill="#F8E7D9"/>
<ellipse cx="156.695" cy="172.638" rx="5.18106" ry="14.8259" transform="rotate(-8.7583 156.695 172.638)" fill="#F8E7D9"/>
<ellipse cx="122.667" cy="87.8729" rx="5.18106" ry="14.8259" transform="rotate(-8.7583 122.667 87.8729)" fill="#F8E7D9"/>
<ellipse cx="139.855" cy="131.384" rx="5.18106" ry="14.8259" transform="rotate(-8.7583 139.855 131.384)" fill="#F8E7D9"/>
<ellipse cx="126.693" cy="148.03" rx="5.18106" ry="14.8259" transform="rotate(-8.7583 126.693 148.03)" fill="#F8E7D9"/>
<ellipse cx="153.168" cy="217.797" rx="5.18106" ry="14.8259" transform="rotate(-8.7583 153.168 217.797)" fill="#F8E7D9"/>
<ellipse cx="170.356" cy="261.309" rx="5.18106" ry="14.8259" transform="rotate(-8.7583 170.356 261.309)" fill="#F8E7D9"/>
<ellipse cx="157.193" cy="277.95" rx="5.18106" ry="14.8259" transform="rotate(-8.7583 157.193 277.95)" fill="#F8E7D9"/>
<ellipse cx="123.166" cy="193.188" rx="5.18106" ry="14.8259" transform="rotate(-8.7583 123.166 193.188)" fill="#F8E7D9"/>
<ellipse cx="140.353" cy="236.696" rx="5.18106" ry="14.8259" transform="rotate(-8.7583 140.353 236.696)" fill="#F8E7D9"/>
<ellipse cx="127.191" cy="253.337" rx="5.18106" ry="14.8259" transform="rotate(-8.7583 127.191 253.337)" fill="#F8E7D9"/>
<ellipse cx="88.1938" cy="272.425" rx="5.18106" ry="14.8259" transform="rotate(-8.7583 88.1938 272.425)" fill="#F8E7D9"/>
<ellipse cx="105.381" cy="315.933" rx="5.18106" ry="14.8259" transform="rotate(-8.7583 105.381 315.933)" fill="#F8E7D9"/>
<ellipse cx="92.2189" cy="332.578" rx="5.18106" ry="14.8259" transform="rotate(-8.7583 92.2189 332.578)" fill="#F8E7D9"/>
<ellipse cx="58.1916" cy="247.816" rx="5.18106" ry="14.8259" transform="rotate(-8.7583 58.1916 247.816)" fill="#F8E7D9"/>
<ellipse cx="75.3789" cy="291.324" rx="5.18106" ry="14.8259" transform="rotate(-8.7583 75.3789 291.324)" fill="#F8E7D9"/>
<ellipse cx="62.2168" cy="307.968" rx="5.18106" ry="14.8259" transform="rotate(-8.7583 62.2168 307.968)" fill="#F8E7D9"/>
<ellipse cx="88.6923" cy="377.739" rx="5.18106" ry="14.8259" transform="rotate(-8.7583 88.6923 377.739)" fill="#F8E7D9"/>
<ellipse cx="105.879" cy="421.247" rx="5.18106" ry="14.8259" transform="rotate(-8.7583 105.879 421.247)" fill="#F8E7D9"/>
<ellipse cx="92.7175" cy="437.892" rx="5.18106" ry="14.8259" transform="rotate(-8.7583 92.7175 437.892)" fill="#F8E7D9"/>
<ellipse cx="58.6897" cy="353.129" rx="5.18106" ry="14.8259" transform="rotate(-8.7583 58.6897 353.129)" fill="#F8E7D9"/>
<ellipse cx="75.8772" cy="396.638" rx="5.18106" ry="14.8259" transform="rotate(-8.7583 75.8772 396.638)" fill="#F8E7D9"/>
<ellipse cx="62.715" cy="413.282" rx="5.18106" ry="14.8259" transform="rotate(-8.7583 62.715 413.282)" fill="#F8E7D9"/>
<ellipse cx="152.278" cy="314.097" rx="5.18106" ry="14.8259" transform="rotate(-8.7583 152.278 314.097)" fill="#F8E7D9"/>
<ellipse cx="169.465" cy="357.6" rx="5.18106" ry="14.8259" transform="rotate(-8.7583 169.465 357.6)" fill="#F8E7D9"/>
<ellipse cx="156.303" cy="374.246" rx="5.18106" ry="14.8259" transform="rotate(-8.7583 156.303 374.246)" fill="#F8E7D9"/>
<ellipse cx="122.275" cy="289.484" rx="5.18106" ry="14.8259" transform="rotate(-8.7583 122.275 289.484)" fill="#F8E7D9"/>
<ellipse cx="139.462" cy="332.992" rx="5.18106" ry="14.8259" transform="rotate(-8.7583 139.462 332.992)" fill="#F8E7D9"/>
<ellipse cx="126.3" cy="349.637" rx="5.18106" ry="14.8259" transform="rotate(-8.7583 126.3 349.637)" fill="#F8E7D9"/>
<ellipse cx="152.775" cy="419.404" rx="5.18106" ry="14.8259" transform="rotate(-8.7583 152.775 419.404)" fill="#F8E7D9"/>
<ellipse cx="169.963" cy="462.916" rx="5.18106" ry="14.8259" transform="rotate(-8.7583 169.963 462.916)" fill="#F8E7D9"/>
<ellipse cx="156.801" cy="479.56" rx="5.18106" ry="14.8259" transform="rotate(-8.7583 156.801 479.56)" fill="#F8E7D9"/>
<ellipse cx="122.773" cy="394.795" rx="5.18106" ry="14.8259" transform="rotate(-8.7583 122.773 394.795)" fill="#F8E7D9"/>
<ellipse cx="139.961" cy="438.306" rx="5.18106" ry="14.8259" transform="rotate(-8.7583 139.961 438.306)" fill="#F8E7D9"/>
<ellipse cx="126.798" cy="454.948" rx="5.18106" ry="14.8259" transform="rotate(-8.7583 126.798 454.948)" fill="#F8E7D9"/>
<ellipse cx="211.98" cy="157.197" rx="5.18106" ry="14.8259" transform="rotate(-8.7583 211.98 157.197)" fill="#F8E7D9"/>
<ellipse cx="229.168" cy="200.705" rx="5.18106" ry="14.8259" transform="rotate(-8.7583 229.168 200.705)" fill="#F8E7D9"/>
<ellipse cx="216.006" cy="217.35" rx="5.18106" ry="14.8259" transform="rotate(-8.7583 216.006 217.35)" fill="#F8E7D9"/>
<ellipse cx="181.978" cy="132.584" rx="5.18106" ry="14.8259" transform="rotate(-8.7583 181.978 132.584)" fill="#F8E7D9"/>
<ellipse cx="199.165" cy="176.096" rx="5.18106" ry="14.8259" transform="rotate(-8.7583 199.165 176.096)" fill="#F8E7D9"/>
<ellipse cx="186.003" cy="192.741" rx="5.18106" ry="14.8259" transform="rotate(-8.7583 186.003 192.741)" fill="#F8E7D9"/>
<ellipse cx="212.479" cy="262.509" rx="5.18106" ry="14.8259" transform="rotate(-8.7583 212.479 262.509)" fill="#F8E7D9"/>
<ellipse cx="229.666" cy="306.02" rx="5.18106" ry="14.8259" transform="rotate(-8.7583 229.666 306.02)" fill="#F8E7D9"/>
<ellipse cx="216.504" cy="322.661" rx="5.18106" ry="14.8259" transform="rotate(-8.7583 216.504 322.661)" fill="#F8E7D9"/>
<ellipse cx="182.476" cy="237.899" rx="5.18106" ry="14.8259" transform="rotate(-8.7583 182.476 237.899)" fill="#F8E7D9"/>
<ellipse cx="199.664" cy="281.41" rx="5.18106" ry="14.8259" transform="rotate(-8.7583 199.664 281.41)" fill="#F8E7D9"/>
<ellipse cx="186.501" cy="298.052" rx="5.18106" ry="14.8259" transform="rotate(-8.7583 186.501 298.052)" fill="#F8E7D9"/>
<ellipse cx="276.064" cy="198.862" rx="5.18106" ry="14.8259" transform="rotate(-8.7583 276.064 198.862)" fill="#F8E7D9"/>
<ellipse cx="293.251" cy="242.37" rx="5.18106" ry="14.8259" transform="rotate(-8.7583 293.251 242.37)" fill="#F8E7D9"/>
<ellipse cx="280.089" cy="259.015" rx="5.18106" ry="14.8259" transform="rotate(-8.7583 280.089 259.015)" fill="#F8E7D9"/>
<ellipse cx="246.061" cy="174.253" rx="5.18106" ry="14.8259" transform="rotate(-8.7583 246.061 174.253)" fill="#F8E7D9"/>
<ellipse cx="263.249" cy="217.761" rx="5.18106" ry="14.8259" transform="rotate(-8.7583 263.249 217.761)" fill="#F8E7D9"/>
<ellipse cx="250.087" cy="234.406" rx="5.18106" ry="14.8259" transform="rotate(-8.7583 250.087 234.406)" fill="#F8E7D9"/>
<ellipse cx="276.562" cy="304.176" rx="5.18106" ry="14.8259" transform="rotate(-8.7583 276.562 304.176)" fill="#F8E7D9"/>
<ellipse cx="293.749" cy="347.684" rx="5.18106" ry="14.8259" transform="rotate(-8.7583 293.749 347.684)" fill="#F8E7D9"/>
<ellipse cx="280.587" cy="364.33" rx="5.18106" ry="14.8259" transform="rotate(-8.7583 280.587 364.33)" fill="#F8E7D9"/>
<ellipse cx="246.56" cy="279.568" rx="5.18106" ry="14.8259" transform="rotate(-8.7583 246.56 279.568)" fill="#F8E7D9"/>
<ellipse cx="263.747" cy="323.076" rx="5.18106" ry="14.8259" transform="rotate(-8.7583 263.747 323.076)" fill="#F8E7D9"/>
<ellipse cx="250.585" cy="339.72" rx="5.18106" ry="14.8259" transform="rotate(-8.7583 250.585 339.72)" fill="#F8E7D9"/>
<ellipse cx="211.588" cy="358.807" rx="5.18106" ry="14.8259" transform="rotate(-8.7583 211.588 358.807)" fill="#F8E7D9"/>
<ellipse cx="228.775" cy="402.312" rx="5.18106" ry="14.8259" transform="rotate(-8.7583 228.775 402.312)" fill="#F8E7D9"/>
<ellipse cx="215.613" cy="418.957" rx="5.18106" ry="14.8259" transform="rotate(-8.7583 215.613 418.957)" fill="#F8E7D9"/>
<ellipse cx="181.585" cy="334.194" rx="5.18106" ry="14.8259" transform="rotate(-8.7583 181.585 334.194)" fill="#F8E7D9"/>
<ellipse cx="198.773" cy="377.703" rx="5.18106" ry="14.8259" transform="rotate(-8.7583 198.773 377.703)" fill="#F8E7D9"/>
<ellipse cx="185.61" cy="394.348" rx="5.18106" ry="14.8259" transform="rotate(-8.7583 185.61 394.348)" fill="#F8E7D9"/>
<ellipse cx="212.086" cy="464.119" rx="5.18106" ry="14.8259" transform="rotate(-8.7583 212.086 464.119)" fill="#F8E7D9"/>
<ellipse cx="229.273" cy="507.627" rx="5.18106" ry="14.8259" transform="rotate(-8.7583 229.273 507.627)" fill="#F8E7D9"/>
<ellipse cx="216.111" cy="524.272" rx="5.18106" ry="14.8259" transform="rotate(-8.7583 216.111 524.272)" fill="#F8E7D9"/>
<ellipse cx="182.083" cy="439.506" rx="5.18106" ry="14.8259" transform="rotate(-8.7583 182.083 439.506)" fill="#F8E7D9"/>
<ellipse cx="199.271" cy="483.017" rx="5.18106" ry="14.8259" transform="rotate(-8.7583 199.271 483.017)" fill="#F8E7D9"/>
<ellipse cx="186.109" cy="499.662" rx="5.18106" ry="14.8259" transform="rotate(-8.7583 186.109 499.662)" fill="#F8E7D9"/>
<ellipse cx="275.671" cy="400.472" rx="5.18106" ry="14.8259" transform="rotate(-8.7583 275.671 400.472)" fill="#F8E7D9"/>
<ellipse cx="292.859" cy="443.981" rx="5.18106" ry="14.8259" transform="rotate(-8.7583 292.859 443.981)" fill="#F8E7D9"/>
<ellipse cx="279.697" cy="460.629" rx="5.18106" ry="14.8259" transform="rotate(-8.7583 279.697 460.629)" fill="#F8E7D9"/>
<ellipse cx="245.669" cy="375.863" rx="5.18106" ry="14.8259" transform="rotate(-8.7583 245.669 375.863)" fill="#F8E7D9"/>
<ellipse cx="262.856" cy="419.371" rx="5.18106" ry="14.8259" transform="rotate(-8.7583 262.856 419.371)" fill="#F8E7D9"/>
<ellipse cx="249.694" cy="436.016" rx="5.18106" ry="14.8259" transform="rotate(-8.7583 249.694 436.016)" fill="#F8E7D9"/>
<ellipse cx="276.17" cy="505.787" rx="5.18106" ry="14.8259" transform="rotate(-8.7583 276.17 505.787)" fill="#F8E7D9"/>
<ellipse cx="293.357" cy="549.295" rx="5.18106" ry="14.8259" transform="rotate(-8.7583 293.357 549.295)" fill="#F8E7D9"/>
<ellipse cx="280.195" cy="565.936" rx="5.18106" ry="14.8259" transform="rotate(-8.7583 280.195 565.936)" fill="#F8E7D9"/>
<ellipse cx="246.167" cy="481.178" rx="5.18106" ry="14.8259" transform="rotate(-8.7583 246.167 481.178)" fill="#F8E7D9"/>
<ellipse cx="263.355" cy="524.686" rx="5.18106" ry="14.8259" transform="rotate(-8.7583 263.355 524.686)" fill="#F8E7D9"/>
<ellipse cx="250.192" cy="541.327" rx="5.18106" ry="14.8259" transform="rotate(-8.7583 250.192 541.327)" fill="#F8E7D9"/>
</svg>
