<svg width="443" height="364" viewBox="0 0 443 364" fill="none" xmlns="http://www.w3.org/2000/svg">
<ellipse cx="70.4156" cy="94.1052" rx="14.2979" ry="6.55107" transform="rotate(-8.7583 70.4156 94.1052)" fill="#FA554A"/>
<ellipse cx="101.747" cy="109.675" rx="14.2979" ry="6.55107" transform="rotate(-8.7583 101.747 109.675)" fill="#FA554A"/>
<ellipse cx="60.3252" cy="122.515" rx="14.2979" ry="6.55107" transform="rotate(-8.7583 60.3252 122.515)" fill="#FA554A"/>
<ellipse cx="-2.18403" cy="92.3738" rx="14.2979" ry="6.55107" transform="rotate(-8.7583 -2.18403 92.3738)" fill="#FA554A"/>
<ellipse cx="29.1475" cy="107.943" rx="14.2979" ry="6.55107" transform="rotate(-8.7583 29.1475 107.943)" fill="#FA554A"/>
<ellipse cx="-12.2746" cy="120.784" rx="14.2979" ry="6.55107" transform="rotate(-8.7583 -12.2746 120.784)" fill="#FA554A"/>
<ellipse cx="35.0303" cy="146.127" rx="14.2979" ry="6.55107" transform="rotate(-8.7583 35.0303 146.127)" fill="#FA554A"/>
<ellipse cx="66.3619" cy="161.696" rx="14.2979" ry="6.55107" transform="rotate(-8.7583 66.3619 161.696)" fill="#FA554A"/>
<ellipse cx="24.94" cy="174.534" rx="14.2979" ry="6.55107" transform="rotate(-8.7583 24.94 174.534)" fill="#FA554A"/>
<ellipse cx="-6.23848" cy="159.963" rx="14.2979" ry="6.55107" transform="rotate(-8.7583 -6.23848 159.963)" fill="#FA554A"/>
<ellipse cx="-0.968947" cy="194.164" rx="14.2979" ry="6.55107" transform="rotate(-8.7583 -0.968947 194.164)" fill="#FA554A"/>
<ellipse cx="30.3624" cy="209.729" rx="14.2979" ry="6.55107" transform="rotate(-8.7583 30.3624 209.729)" fill="#FA554A"/>
<ellipse cx="-11.059" cy="222.57" rx="14.2979" ry="6.55107" transform="rotate(-8.7583 -11.059 222.57)" fill="#FA554A"/>
<ellipse cx="-5.02315" cy="261.75" rx="14.2979" ry="6.55107" transform="rotate(-8.7583 -5.02315 261.75)" fill="#FA554A"/>
<ellipse cx="215.308" cy="95.5788" rx="14.2979" ry="6.55107" transform="rotate(-8.7583 215.308 95.5788)" fill="#FA554A"/>
<ellipse cx="246.64" cy="111.146" rx="14.2979" ry="6.55107" transform="rotate(-8.7583 246.64 111.146)" fill="#FA554A"/>
<ellipse cx="205.219" cy="123.986" rx="14.2979" ry="6.55107" transform="rotate(-8.7583 205.219 123.986)" fill="#FA554A"/>
<ellipse cx="142.709" cy="93.8454" rx="14.2979" ry="6.55107" transform="rotate(-8.7583 142.709 93.8454)" fill="#FA554A"/>
<ellipse cx="174.04" cy="109.415" rx="14.2979" ry="6.55107" transform="rotate(-8.7583 174.04 109.415)" fill="#FA554A"/>
<ellipse cx="132.619" cy="122.255" rx="14.2979" ry="6.55107" transform="rotate(-8.7583 132.619 122.255)" fill="#FA554A"/>
<ellipse cx="179.923" cy="147.597" rx="14.2979" ry="6.55107" transform="rotate(-8.7583 179.923 147.597)" fill="#FA554A"/>
<ellipse cx="211.255" cy="163.167" rx="14.2979" ry="6.55107" transform="rotate(-8.7583 211.255 163.167)" fill="#FA554A"/>
<ellipse cx="169.833" cy="176.006" rx="14.2979" ry="6.55107" transform="rotate(-8.7583 169.833 176.006)" fill="#FA554A"/>
<ellipse cx="107.323" cy="145.866" rx="14.2979" ry="6.55107" transform="rotate(-8.7583 107.323 145.866)" fill="#FA554A"/>
<ellipse cx="138.655" cy="161.435" rx="14.2979" ry="6.55107" transform="rotate(-8.7583 138.655 161.435)" fill="#FA554A"/>
<ellipse cx="97.2332" cy="174.274" rx="14.2979" ry="6.55107" transform="rotate(-8.7583 97.2332 174.274)" fill="#FA554A"/>
<ellipse cx="374.179" cy="93.8757" rx="14.2979" ry="6.55107" transform="rotate(-8.7583 374.179 93.8757)" fill="#FA554A"/>
<ellipse cx="405.51" cy="109.443" rx="14.2979" ry="6.55107" transform="rotate(-8.7583 405.51 109.443)" fill="#FA554A"/>
<ellipse cx="364.089" cy="122.283" rx="14.2979" ry="6.55107" transform="rotate(-8.7583 364.089 122.283)" fill="#FA554A"/>
<ellipse cx="301.579" cy="92.1433" rx="14.2979" ry="6.55107" transform="rotate(-8.7583 301.579 92.1433)" fill="#FA554A"/>
<ellipse cx="332.91" cy="107.712" rx="14.2979" ry="6.55107" transform="rotate(-8.7583 332.91 107.712)" fill="#FA554A"/>
<ellipse cx="291.489" cy="120.551" rx="14.2979" ry="6.55107" transform="rotate(-8.7583 291.489 120.551)" fill="#FA554A"/>
<ellipse cx="338.793" cy="145.895" rx="14.2979" ry="6.55107" transform="rotate(-8.7583 338.793 145.895)" fill="#FA554A"/>
<ellipse cx="370.125" cy="161.464" rx="14.2979" ry="6.55107" transform="rotate(-8.7583 370.125 161.464)" fill="#FA554A"/>
<ellipse cx="328.704" cy="174.304" rx="14.2979" ry="6.55107" transform="rotate(-8.7583 328.704 174.304)" fill="#FA554A"/>
<ellipse cx="266.193" cy="144.165" rx="14.2979" ry="6.55107" transform="rotate(-8.7583 266.193 144.165)" fill="#FA554A"/>
<ellipse cx="297.525" cy="159.732" rx="14.2979" ry="6.55107" transform="rotate(-8.7583 297.525 159.732)" fill="#FA554A"/>
<ellipse cx="256.104" cy="172.573" rx="14.2979" ry="6.55107" transform="rotate(-8.7583 256.104 172.573)" fill="#FA554A"/>
<ellipse cx="143.924" cy="195.634" rx="14.2979" ry="6.55107" transform="rotate(-8.7583 143.924 195.634)" fill="#FA554A"/>
<ellipse cx="175.255" cy="211.201" rx="14.2979" ry="6.55107" transform="rotate(-8.7583 175.255 211.201)" fill="#FA554A"/>
<ellipse cx="133.834" cy="224.041" rx="14.2979" ry="6.55107" transform="rotate(-8.7583 133.834 224.041)" fill="#FA554A"/>
<ellipse cx="71.3235" cy="193.901" rx="14.2979" ry="6.55107" transform="rotate(-8.7583 71.3235 193.901)" fill="#FA554A"/>
<ellipse cx="102.655" cy="209.469" rx="14.2979" ry="6.55107" transform="rotate(-8.7583 102.655 209.469)" fill="#FA554A"/>
<ellipse cx="61.2334" cy="222.31" rx="14.2979" ry="6.55107" transform="rotate(-8.7583 61.2334 222.31)" fill="#FA554A"/>
<ellipse cx="108.538" cy="247.654" rx="14.2979" ry="6.55107" transform="rotate(-8.7583 108.538 247.654)" fill="#FA554A"/>
<ellipse cx="139.87" cy="263.221" rx="14.2979" ry="6.55107" transform="rotate(-8.7583 139.87 263.221)" fill="#FA554A"/>
<ellipse cx="98.4485" cy="276.062" rx="14.2979" ry="6.55107" transform="rotate(-8.7583 98.4485 276.062)" fill="#FA554A"/>
<ellipse cx="35.9385" cy="245.921" rx="14.2979" ry="6.55107" transform="rotate(-8.7583 35.9385 245.921)" fill="#FA554A"/>
<ellipse cx="67.2701" cy="261.49" rx="14.2979" ry="6.55107" transform="rotate(-8.7583 67.2701 261.49)" fill="#FA554A"/>
<ellipse cx="25.8482" cy="274.33" rx="14.2979" ry="6.55107" transform="rotate(-8.7583 25.8482 274.33)" fill="#FA554A"/>
<ellipse cx="302.794" cy="193.931" rx="14.2979" ry="6.55107" transform="rotate(-8.7583 302.794 193.931)" fill="#FA554A"/>
<ellipse cx="334.126" cy="209.499" rx="14.2979" ry="6.55107" transform="rotate(-8.7583 334.126 209.499)" fill="#FA554A"/>
<ellipse cx="292.704" cy="222.341" rx="14.2979" ry="6.55107" transform="rotate(-8.7583 292.704 222.341)" fill="#FA554A"/>
<ellipse cx="230.194" cy="192.2" rx="14.2979" ry="6.55107" transform="rotate(-8.7583 230.194 192.2)" fill="#FA554A"/>
<ellipse cx="261.526" cy="207.767" rx="14.2979" ry="6.55107" transform="rotate(-8.7583 261.526 207.767)" fill="#FA554A"/>
<ellipse cx="220.104" cy="220.608" rx="14.2979" ry="6.55107" transform="rotate(-8.7583 220.104 220.608)" fill="#FA554A"/>
<ellipse cx="267.409" cy="245.952" rx="14.2979" ry="6.55107" transform="rotate(-8.7583 267.409 245.952)" fill="#FA554A"/>
<ellipse cx="298.741" cy="261.52" rx="14.2979" ry="6.55107" transform="rotate(-8.7583 298.741 261.52)" fill="#FA554A"/>
<ellipse cx="257.319" cy="274.359" rx="14.2979" ry="6.55107" transform="rotate(-8.7583 257.319 274.359)" fill="#FA554A"/>
<ellipse cx="194.809" cy="244.22" rx="14.2979" ry="6.55107" transform="rotate(-8.7583 194.809 244.22)" fill="#FA554A"/>
<ellipse cx="226.141" cy="259.789" rx="14.2979" ry="6.55107" transform="rotate(-8.7583 226.141 259.789)" fill="#FA554A"/>
<ellipse cx="184.719" cy="272.627" rx="14.2979" ry="6.55107" transform="rotate(-8.7583 184.719 272.627)" fill="#FA554A"/>
</svg>
