<svg width="311" height="117" viewBox="0 0 311 117" fill="none" xmlns="http://www.w3.org/2000/svg">
<ellipse cx="95.0296" cy="32.596" rx="5.94118" ry="2.00395" transform="rotate(-7.38718 95.0296 32.596)" fill="#F8E7D9"/>
<ellipse cx="107.606" cy="37.1829" rx="5.94118" ry="2.00395" transform="rotate(-7.38718 107.606 37.1829)" fill="#F8E7D9"/>
<ellipse cx="90.1815" cy="41.4109" rx="5.94118" ry="2.00395" transform="rotate(-7.38718 90.1815 41.4109)" fill="#F8E7D9"/>
<ellipse cx="65.0682" cy="32.5428" rx="5.94118" ry="2.00395" transform="rotate(-7.38718 65.0682 32.5428)" fill="#F8E7D9"/>
<ellipse cx="77.6446" cy="37.1297" rx="5.94118" ry="2.00395" transform="rotate(-7.38718 77.6446 37.1297)" fill="#F8E7D9"/>
<ellipse cx="60.2201" cy="41.3577" rx="5.94118" ry="2.00395" transform="rotate(-7.38718 60.2201 41.3577)" fill="#F8E7D9"/>
<ellipse cx="79.1642" cy="48.8499" rx="5.94118" ry="2.00395" transform="rotate(-7.38718 79.1642 48.8499)" fill="#F8E7D9"/>
<ellipse cx="91.7406" cy="53.4368" rx="5.94118" ry="2.00395" transform="rotate(-7.38718 91.7406 53.4368)" fill="#F8E7D9"/>
<ellipse cx="74.3163" cy="57.6648" rx="5.94118" ry="2.00395" transform="rotate(-7.38718 74.3163 57.6648)" fill="#F8E7D9"/>
<ellipse cx="49.2027" cy="48.7967" rx="5.94118" ry="2.00395" transform="rotate(-7.38718 49.2027 48.7967)" fill="#F8E7D9"/>
<ellipse cx="61.7794" cy="53.3836" rx="5.94118" ry="2.00395" transform="rotate(-7.38718 61.7794 53.3836)" fill="#F8E7D9"/>
<ellipse cx="44.3548" cy="57.6116" rx="5.94118" ry="2.00395" transform="rotate(-7.38718 44.3548 57.6116)" fill="#F8E7D9"/>
<ellipse cx="160.725" cy="31.0213" rx="5.94118" ry="2.00395" transform="rotate(-7.38718 160.725 31.0213)" fill="#F8E7D9"/>
<ellipse cx="173.302" cy="35.6087" rx="5.94118" ry="2.00395" transform="rotate(-7.38718 173.302 35.6087)" fill="#F8E7D9"/>
<ellipse cx="155.877" cy="39.8367" rx="5.94118" ry="2.00395" transform="rotate(-7.38718 155.877 39.8367)" fill="#F8E7D9"/>
<ellipse cx="130.764" cy="30.9681" rx="5.94118" ry="2.00395" transform="rotate(-7.38718 130.764 30.9681)" fill="#F8E7D9"/>
<ellipse cx="143.34" cy="35.5555" rx="5.94118" ry="2.00395" transform="rotate(-7.38718 143.34 35.5555)" fill="#F8E7D9"/>
<ellipse cx="125.916" cy="39.7835" rx="5.94118" ry="2.00395" transform="rotate(-7.38718 125.916 39.7835)" fill="#F8E7D9"/>
<ellipse cx="144.86" cy="47.2752" rx="5.94118" ry="2.00395" transform="rotate(-7.38718 144.86 47.2752)" fill="#F8E7D9"/>
<ellipse cx="157.436" cy="51.8626" rx="5.94118" ry="2.00395" transform="rotate(-7.38718 157.436 51.8626)" fill="#F8E7D9"/>
<ellipse cx="140.012" cy="56.0906" rx="5.94118" ry="2.00395" transform="rotate(-7.38718 140.012 56.0906)" fill="#F8E7D9"/>
<ellipse cx="114.899" cy="47.222" rx="5.94118" ry="2.00395" transform="rotate(-7.38718 114.899 47.222)" fill="#F8E7D9"/>
<ellipse cx="127.475" cy="51.8089" rx="5.94118" ry="2.00395" transform="rotate(-7.38718 127.475 51.8089)" fill="#F8E7D9"/>
<ellipse cx="110.051" cy="56.0369" rx="5.94118" ry="2.00395" transform="rotate(-7.38718 110.051 56.0369)" fill="#F8E7D9"/>
<ellipse cx="63.1402" cy="63.8807" rx="5.94118" ry="2.00395" transform="rotate(-7.38718 63.1402 63.8807)" fill="#F8E7D9"/>
<ellipse cx="75.7167" cy="68.4676" rx="5.94118" ry="2.00395" transform="rotate(-7.38718 75.7167 68.4676)" fill="#F8E7D9"/>
<ellipse cx="58.2921" cy="72.6956" rx="5.94118" ry="2.00395" transform="rotate(-7.38718 58.2921 72.6956)" fill="#F8E7D9"/>
<ellipse cx="33.1788" cy="63.8274" rx="5.94118" ry="2.00395" transform="rotate(-7.38718 33.1788 63.8274)" fill="#F8E7D9"/>
<ellipse cx="45.7552" cy="68.4144" rx="5.94118" ry="2.00395" transform="rotate(-7.38718 45.7552 68.4144)" fill="#F8E7D9"/>
<ellipse cx="28.3307" cy="72.6424" rx="5.94118" ry="2.00395" transform="rotate(-7.38718 28.3307 72.6424)" fill="#F8E7D9"/>
<ellipse cx="47.2748" cy="80.1346" rx="5.94118" ry="2.00395" transform="rotate(-7.38718 47.2748 80.1346)" fill="#F8E7D9"/>
<ellipse cx="59.8514" cy="84.7215" rx="5.94118" ry="2.00395" transform="rotate(-7.38718 59.8514 84.7215)" fill="#F8E7D9"/>
<ellipse cx="42.4269" cy="88.9495" rx="5.94118" ry="2.00395" transform="rotate(-7.38718 42.4269 88.9495)" fill="#F8E7D9"/>
<ellipse cx="17.3133" cy="80.0814" rx="5.94118" ry="2.00395" transform="rotate(-7.38718 17.3133 80.0814)" fill="#F8E7D9"/>
<ellipse cx="29.89" cy="84.6683" rx="5.94118" ry="2.00395" transform="rotate(-7.38718 29.89 84.6683)" fill="#F8E7D9"/>
<ellipse cx="12.4654" cy="88.8963" rx="5.94118" ry="2.00395" transform="rotate(-7.38718 12.4654 88.8963)" fill="#F8E7D9"/>
<ellipse cx="128.836" cy="62.3064" rx="5.94118" ry="2.00395" transform="rotate(-7.38718 128.836 62.3064)" fill="#F8E7D9"/>
<ellipse cx="141.412" cy="66.8934" rx="5.94118" ry="2.00395" transform="rotate(-7.38718 141.412 66.8934)" fill="#F8E7D9"/>
<ellipse cx="123.988" cy="71.1214" rx="5.94118" ry="2.00395" transform="rotate(-7.38718 123.988 71.1214)" fill="#F8E7D9"/>
<ellipse cx="98.8746" cy="62.2527" rx="5.94118" ry="2.00395" transform="rotate(-7.38718 98.8746 62.2527)" fill="#F8E7D9"/>
<ellipse cx="111.451" cy="66.8401" rx="5.94118" ry="2.00395" transform="rotate(-7.38718 111.451 66.8401)" fill="#F8E7D9"/>
<ellipse cx="94.0265" cy="71.0682" rx="5.94118" ry="2.00395" transform="rotate(-7.38718 94.0265 71.0682)" fill="#F8E7D9"/>
<ellipse cx="112.971" cy="78.5599" rx="5.94118" ry="2.00395" transform="rotate(-7.38718 112.971 78.5599)" fill="#F8E7D9"/>
<ellipse cx="125.547" cy="83.1473" rx="5.94118" ry="2.00395" transform="rotate(-7.38718 125.547 83.1473)" fill="#F8E7D9"/>
<ellipse cx="108.123" cy="87.3753" rx="5.94118" ry="2.00395" transform="rotate(-7.38718 108.123 87.3753)" fill="#F8E7D9"/>
<ellipse cx="83.0091" cy="78.5066" rx="5.94118" ry="2.00395" transform="rotate(-7.38718 83.0091 78.5066)" fill="#F8E7D9"/>
<ellipse cx="95.5858" cy="83.094" rx="5.94118" ry="2.00395" transform="rotate(-7.38718 95.5858 83.094)" fill="#F8E7D9"/>
<ellipse cx="78.1612" cy="87.3216" rx="5.94118" ry="2.00395" transform="rotate(-7.38718 78.1612 87.3216)" fill="#F8E7D9"/>
<ellipse cx="220.569" cy="30.5169" rx="5.94118" ry="2.00395" transform="rotate(-7.38718 220.569 30.5169)" fill="#F8E7D9"/>
<ellipse cx="233.145" cy="35.1038" rx="5.94118" ry="2.00395" transform="rotate(-7.38718 233.145 35.1038)" fill="#F8E7D9"/>
<ellipse cx="215.721" cy="39.3318" rx="5.94118" ry="2.00395" transform="rotate(-7.38718 215.721 39.3318)" fill="#F8E7D9"/>
<ellipse cx="190.608" cy="30.4632" rx="5.94118" ry="2.00395" transform="rotate(-7.38718 190.608 30.4632)" fill="#F8E7D9"/>
<ellipse cx="203.184" cy="35.0506" rx="5.94118" ry="2.00395" transform="rotate(-7.38718 203.184 35.0506)" fill="#F8E7D9"/>
<ellipse cx="185.759" cy="39.2786" rx="5.94118" ry="2.00395" transform="rotate(-7.38718 185.759 39.2786)" fill="#F8E7D9"/>
<ellipse cx="204.703" cy="46.7703" rx="5.94118" ry="2.00395" transform="rotate(-7.38718 204.703 46.7703)" fill="#F8E7D9"/>
<ellipse cx="217.28" cy="51.3577" rx="5.94118" ry="2.00395" transform="rotate(-7.38718 217.28 51.3577)" fill="#F8E7D9"/>
<ellipse cx="199.856" cy="55.5857" rx="5.94118" ry="2.00395" transform="rotate(-7.38718 199.856 55.5857)" fill="#F8E7D9"/>
<ellipse cx="174.742" cy="46.7171" rx="5.94118" ry="2.00395" transform="rotate(-7.38718 174.742 46.7171)" fill="#F8E7D9"/>
<ellipse cx="187.319" cy="51.3045" rx="5.94118" ry="2.00395" transform="rotate(-7.38718 187.319 51.3045)" fill="#F8E7D9"/>
<ellipse cx="169.894" cy="55.5325" rx="5.94118" ry="2.00395" transform="rotate(-7.38718 169.894 55.5325)" fill="#F8E7D9"/>
<ellipse cx="286.265" cy="28.9422" rx="5.94118" ry="2.00395" transform="rotate(-7.38718 286.265 28.9422)" fill="#F8E7D9"/>
<ellipse cx="298.841" cy="33.5291" rx="5.94118" ry="2.00395" transform="rotate(-7.38718 298.841 33.5291)" fill="#F8E7D9"/>
<ellipse cx="281.417" cy="37.7571" rx="5.94118" ry="2.00395" transform="rotate(-7.38718 281.417 37.7571)" fill="#F8E7D9"/>
<ellipse cx="256.303" cy="28.889" rx="5.94118" ry="2.00395" transform="rotate(-7.38718 256.303 28.889)" fill="#F8E7D9"/>
<ellipse cx="268.88" cy="33.4759" rx="5.94118" ry="2.00395" transform="rotate(-7.38718 268.88 33.4759)" fill="#F8E7D9"/>
<ellipse cx="251.455" cy="37.7039" rx="5.94118" ry="2.00395" transform="rotate(-7.38718 251.455 37.7039)" fill="#F8E7D9"/>
<ellipse cx="270.399" cy="45.1961" rx="5.94118" ry="2.00395" transform="rotate(-7.38718 270.399 45.1961)" fill="#F8E7D9"/>
<ellipse cx="282.976" cy="49.783" rx="5.94118" ry="2.00395" transform="rotate(-7.38718 282.976 49.783)" fill="#F8E7D9"/>
<ellipse cx="265.551" cy="54.011" rx="5.94118" ry="2.00395" transform="rotate(-7.38718 265.551 54.011)" fill="#F8E7D9"/>
<ellipse cx="240.438" cy="45.1429" rx="5.94118" ry="2.00395" transform="rotate(-7.38718 240.438 45.1429)" fill="#F8E7D9"/>
<ellipse cx="253.015" cy="49.7298" rx="5.94118" ry="2.00395" transform="rotate(-7.38718 253.015 49.7298)" fill="#F8E7D9"/>
<ellipse cx="235.59" cy="53.9578" rx="5.94118" ry="2.00395" transform="rotate(-7.38718 235.59 53.9578)" fill="#F8E7D9"/>
<ellipse cx="188.68" cy="61.8016" rx="5.94118" ry="2.00395" transform="rotate(-7.38718 188.68 61.8016)" fill="#F8E7D9"/>
<ellipse cx="201.256" cy="66.3885" rx="5.94118" ry="2.00395" transform="rotate(-7.38718 201.256 66.3885)" fill="#F8E7D9"/>
<ellipse cx="183.832" cy="70.6165" rx="5.94118" ry="2.00395" transform="rotate(-7.38718 183.832 70.6165)" fill="#F8E7D9"/>
<ellipse cx="158.718" cy="61.7479" rx="5.94118" ry="2.00395" transform="rotate(-7.38718 158.718 61.7479)" fill="#F8E7D9"/>
<ellipse cx="171.295" cy="66.3353" rx="5.94118" ry="2.00395" transform="rotate(-7.38718 171.295 66.3353)" fill="#F8E7D9"/>
<ellipse cx="153.87" cy="70.5633" rx="5.94118" ry="2.00395" transform="rotate(-7.38718 153.87 70.5633)" fill="#F8E7D9"/>
<ellipse cx="172.814" cy="78.0555" rx="5.94118" ry="2.00395" transform="rotate(-7.38718 172.814 78.0555)" fill="#F8E7D9"/>
<ellipse cx="185.391" cy="82.6424" rx="5.94118" ry="2.00395" transform="rotate(-7.38718 185.391 82.6424)" fill="#F8E7D9"/>
<ellipse cx="167.966" cy="86.8704" rx="5.94118" ry="2.00395" transform="rotate(-7.38718 167.966 86.8704)" fill="#F8E7D9"/>
<ellipse cx="142.853" cy="78.0018" rx="5.94118" ry="2.00395" transform="rotate(-7.38718 142.853 78.0018)" fill="#F8E7D9"/>
<ellipse cx="155.429" cy="82.5892" rx="5.94118" ry="2.00395" transform="rotate(-7.38718 155.429 82.5892)" fill="#F8E7D9"/>
<ellipse cx="138.005" cy="86.8172" rx="5.94118" ry="2.00395" transform="rotate(-7.38718 138.005 86.8172)" fill="#F8E7D9"/>
<ellipse cx="254.375" cy="60.2269" rx="5.94118" ry="2.00395" transform="rotate(-7.38718 254.375 60.2269)" fill="#F8E7D9"/>
<ellipse cx="266.952" cy="64.8138" rx="5.94118" ry="2.00395" transform="rotate(-7.38718 266.952 64.8138)" fill="#F8E7D9"/>
<ellipse cx="249.527" cy="69.0423" rx="5.94118" ry="2.00395" transform="rotate(-7.38718 249.527 69.0423)" fill="#F8E7D9"/>
<ellipse cx="224.414" cy="60.1736" rx="5.94118" ry="2.00395" transform="rotate(-7.38718 224.414 60.1736)" fill="#F8E7D9"/>
<ellipse cx="236.991" cy="64.7606" rx="5.94118" ry="2.00395" transform="rotate(-7.38718 236.991 64.7606)" fill="#F8E7D9"/>
<ellipse cx="219.566" cy="68.9886" rx="5.94118" ry="2.00395" transform="rotate(-7.38718 219.566 68.9886)" fill="#F8E7D9"/>
<ellipse cx="238.51" cy="76.4808" rx="5.94118" ry="2.00395" transform="rotate(-7.38718 238.51 76.4808)" fill="#F8E7D9"/>
<ellipse cx="251.087" cy="81.0677" rx="5.94118" ry="2.00395" transform="rotate(-7.38718 251.087 81.0677)" fill="#F8E7D9"/>
<ellipse cx="233.662" cy="85.2957" rx="5.94118" ry="2.00395" transform="rotate(-7.38718 233.662 85.2957)" fill="#F8E7D9"/>
<ellipse cx="208.548" cy="76.4275" rx="5.94118" ry="2.00395" transform="rotate(-7.38718 208.548 76.4275)" fill="#F8E7D9"/>
<ellipse cx="221.125" cy="81.0145" rx="5.94118" ry="2.00395" transform="rotate(-7.38718 221.125 81.0145)" fill="#F8E7D9"/>
<ellipse cx="203.701" cy="85.2425" rx="5.94118" ry="2.00395" transform="rotate(-7.38718 203.701 85.2425)" fill="#F8E7D9"/>
</svg>
