<svg width="178" height="94" viewBox="0 0 178 94" fill="none" xmlns="http://www.w3.org/2000/svg">
<ellipse cx="52.9649" cy="24.1321" rx="3.30407" ry="1.70181" transform="rotate(-9.54866 52.9649 24.1321)" fill="black"/>
<ellipse cx="60.3499" cy="28.1995" rx="3.30407" ry="1.70181" transform="rotate(-9.54866 60.3499 28.1995)" fill="black"/>
<ellipse cx="50.8504" cy="31.4793" rx="3.30407" ry="1.70181" transform="rotate(-9.54866 50.8504 31.4793)" fill="black"/>
<ellipse cx="36.1234" cy="23.6023" rx="3.30407" ry="1.70181" transform="rotate(-9.54866 36.1234 23.6023)" fill="black"/>
<ellipse cx="43.5086" cy="27.6697" rx="3.30407" ry="1.70181" transform="rotate(-9.54866 43.5086 27.6697)" fill="black"/>
<ellipse cx="34.0089" cy="30.949" rx="3.30407" ry="1.70181" transform="rotate(-9.54866 34.0089 30.949)" fill="black"/>
<ellipse cx="45.1737" cy="37.5671" rx="3.30407" ry="1.70181" transform="rotate(-9.54866 45.1737 37.5671)" fill="black"/>
<ellipse cx="52.5587" cy="41.6345" rx="3.30407" ry="1.70181" transform="rotate(-9.54866 52.5587 41.6345)" fill="black"/>
<ellipse cx="43.0587" cy="44.9138" rx="3.30407" ry="1.70181" transform="rotate(-9.54866 43.0587 44.9138)" fill="black"/>
<ellipse cx="28.3319" cy="37.0369" rx="3.30407" ry="1.70181" transform="rotate(-9.54866 28.3319 37.0369)" fill="black"/>
<ellipse cx="35.7171" cy="41.1043" rx="3.30407" ry="1.70181" transform="rotate(-9.54866 35.7171 41.1043)" fill="black"/>
<ellipse cx="26.2174" cy="44.384" rx="3.30407" ry="1.70181" transform="rotate(-9.54866 26.2174 44.384)" fill="black"/>
<ellipse cx="89.7762" cy="23.8694" rx="3.30407" ry="1.70181" transform="rotate(-9.54866 89.7762 23.8694)" fill="black"/>
<ellipse cx="97.1617" cy="27.9368" rx="3.30407" ry="1.70181" transform="rotate(-9.54866 97.1617 27.9368)" fill="black"/>
<ellipse cx="87.6614" cy="31.2161" rx="3.30407" ry="1.70181" transform="rotate(-9.54866 87.6614 31.2161)" fill="black"/>
<ellipse cx="72.9344" cy="23.3391" rx="3.30407" ry="1.70181" transform="rotate(-9.54866 72.9344 23.3391)" fill="black"/>
<ellipse cx="80.3201" cy="27.407" rx="3.30407" ry="1.70181" transform="rotate(-9.54866 80.3201 27.407)" fill="black"/>
<ellipse cx="70.8201" cy="30.6863" rx="3.30407" ry="1.70181" transform="rotate(-9.54866 70.8201 30.6863)" fill="black"/>
<ellipse cx="81.9849" cy="37.3045" rx="3.30407" ry="1.70181" transform="rotate(-9.54866 81.9849 37.3045)" fill="black"/>
<ellipse cx="89.3697" cy="41.3713" rx="3.30407" ry="1.70181" transform="rotate(-9.54866 89.3697 41.3713)" fill="black"/>
<ellipse cx="79.8702" cy="44.6511" rx="3.30407" ry="1.70181" transform="rotate(-9.54866 79.8702 44.6511)" fill="black"/>
<ellipse cx="65.1431" cy="36.7742" rx="3.30407" ry="1.70181" transform="rotate(-9.54866 65.1431 36.7742)" fill="black"/>
<ellipse cx="72.5284" cy="40.842" rx="3.30407" ry="1.70181" transform="rotate(-9.54866 72.5284 40.842)" fill="black"/>
<ellipse cx="63.0286" cy="44.1213" rx="3.30407" ry="1.70181" transform="rotate(-9.54866 63.0286 44.1213)" fill="black"/>
<ellipse cx="37.2081" cy="49.969" rx="3.30407" ry="1.70181" transform="rotate(-9.54866 37.2081 49.969)" fill="black"/>
<ellipse cx="44.5936" cy="54.0364" rx="3.30407" ry="1.70181" transform="rotate(-9.54866 44.5936 54.0364)" fill="black"/>
<ellipse cx="35.0936" cy="57.3162" rx="3.30407" ry="1.70181" transform="rotate(-9.54866 35.0936 57.3162)" fill="black"/>
<ellipse cx="20.3668" cy="49.4392" rx="3.30407" ry="1.70181" transform="rotate(-9.54866 20.3668 49.4392)" fill="black"/>
<ellipse cx="27.752" cy="53.5066" rx="3.30407" ry="1.70181" transform="rotate(-9.54866 27.752 53.5066)" fill="black"/>
<ellipse cx="18.252" cy="56.7859" rx="3.30407" ry="1.70181" transform="rotate(-9.54866 18.252 56.7859)" fill="black"/>
<ellipse cx="29.4168" cy="63.4041" rx="3.30407" ry="1.70181" transform="rotate(-9.54866 29.4168 63.4041)" fill="black"/>
<ellipse cx="36.8021" cy="67.4714" rx="3.30407" ry="1.70181" transform="rotate(-9.54866 36.8021 67.4714)" fill="black"/>
<ellipse cx="27.3021" cy="70.7512" rx="3.30407" ry="1.70181" transform="rotate(-9.54866 27.3021 70.7512)" fill="black"/>
<ellipse cx="12.5753" cy="62.8738" rx="3.30407" ry="1.70181" transform="rotate(-9.54866 12.5753 62.8738)" fill="black"/>
<ellipse cx="19.9605" cy="66.9417" rx="3.30407" ry="1.70181" transform="rotate(-9.54866 19.9605 66.9417)" fill="black"/>
<ellipse cx="10.4605" cy="70.221" rx="3.30407" ry="1.70181" transform="rotate(-9.54866 10.4605 70.221)" fill="black"/>
<ellipse cx="74.0194" cy="49.7063" rx="3.30407" ry="1.70181" transform="rotate(-9.54866 74.0194 49.7063)" fill="black"/>
<ellipse cx="81.4051" cy="53.7737" rx="3.30407" ry="1.70181" transform="rotate(-9.54866 81.4051 53.7737)" fill="black"/>
<ellipse cx="71.9046" cy="57.0535" rx="3.30407" ry="1.70181" transform="rotate(-9.54866 71.9046 57.0535)" fill="black"/>
<ellipse cx="57.178" cy="49.176" rx="3.30407" ry="1.70181" transform="rotate(-9.54866 57.178 49.176)" fill="black"/>
<ellipse cx="64.5633" cy="53.2439" rx="3.30407" ry="1.70181" transform="rotate(-9.54866 64.5633 53.2439)" fill="black"/>
<ellipse cx="55.0631" cy="56.5237" rx="3.30407" ry="1.70181" transform="rotate(-9.54866 55.0631 56.5237)" fill="black"/>
<ellipse cx="66.2281" cy="63.1414" rx="3.30407" ry="1.70181" transform="rotate(-9.54866 66.2281 63.1414)" fill="black"/>
<ellipse cx="73.6131" cy="67.2087" rx="3.30407" ry="1.70181" transform="rotate(-9.54866 73.6131 67.2087)" fill="black"/>
<ellipse cx="64.1133" cy="70.488" rx="3.30407" ry="1.70181" transform="rotate(-9.54866 64.1133 70.488)" fill="black"/>
<ellipse cx="49.3865" cy="62.6111" rx="3.30407" ry="1.70181" transform="rotate(-9.54866 49.3865 62.6111)" fill="black"/>
<ellipse cx="56.7718" cy="66.679" rx="3.30407" ry="1.70181" transform="rotate(-9.54866 56.7718 66.679)" fill="black"/>
<ellipse cx="47.2718" cy="69.9587" rx="3.30407" ry="1.70181" transform="rotate(-9.54866 47.2718 69.9587)" fill="black"/>
<ellipse cx="123.372" cy="24.4128" rx="3.30407" ry="1.70181" transform="rotate(-9.54866 123.372 24.4128)" fill="black"/>
<ellipse cx="130.758" cy="28.4802" rx="3.30407" ry="1.70181" transform="rotate(-9.54866 130.758 28.4802)" fill="black"/>
<ellipse cx="121.258" cy="31.7595" rx="3.30407" ry="1.70181" transform="rotate(-9.54866 121.258 31.7595)" fill="black"/>
<ellipse cx="106.531" cy="23.8826" rx="3.30407" ry="1.70181" transform="rotate(-9.54866 106.531 23.8826)" fill="black"/>
<ellipse cx="113.916" cy="27.95" rx="3.30407" ry="1.70181" transform="rotate(-9.54866 113.916 27.95)" fill="black"/>
<ellipse cx="104.417" cy="31.2297" rx="3.30407" ry="1.70181" transform="rotate(-9.54866 104.417 31.2297)" fill="black"/>
<ellipse cx="115.581" cy="37.8474" rx="3.30407" ry="1.70181" transform="rotate(-9.54866 115.581 37.8474)" fill="black"/>
<ellipse cx="122.966" cy="41.9153" rx="3.30407" ry="1.70181" transform="rotate(-9.54866 122.966 41.9153)" fill="black"/>
<ellipse cx="113.466" cy="45.1946" rx="3.30407" ry="1.70181" transform="rotate(-9.54866 113.466 45.1946)" fill="black"/>
<ellipse cx="98.7398" cy="37.3171" rx="3.30407" ry="1.70181" transform="rotate(-9.54866 98.7398 37.3171)" fill="black"/>
<ellipse cx="106.125" cy="41.385" rx="3.30407" ry="1.70181" transform="rotate(-9.54866 106.125 41.385)" fill="black"/>
<ellipse cx="96.6248" cy="44.6648" rx="3.30407" ry="1.70181" transform="rotate(-9.54866 96.6248 44.6648)" fill="black"/>
<ellipse cx="160.184" cy="24.1497" rx="3.30407" ry="1.70181" transform="rotate(-9.54866 160.184 24.1497)" fill="black"/>
<ellipse cx="167.569" cy="28.217" rx="3.30407" ry="1.70181" transform="rotate(-9.54866 167.569 28.217)" fill="black"/>
<ellipse cx="158.069" cy="31.4968" rx="3.30407" ry="1.70181" transform="rotate(-9.54866 158.069 31.4968)" fill="black"/>
<ellipse cx="143.342" cy="23.6199" rx="3.30407" ry="1.70181" transform="rotate(-9.54866 143.342 23.6199)" fill="black"/>
<ellipse cx="150.727" cy="27.6878" rx="3.30407" ry="1.70181" transform="rotate(-9.54866 150.727 27.6878)" fill="black"/>
<ellipse cx="141.228" cy="30.967" rx="3.30407" ry="1.70181" transform="rotate(-9.54866 141.228 30.967)" fill="black"/>
<ellipse cx="152.392" cy="37.5847" rx="3.30407" ry="1.70181" transform="rotate(-9.54866 152.392 37.5847)" fill="black"/>
<ellipse cx="159.777" cy="41.6521" rx="3.30407" ry="1.70181" transform="rotate(-9.54866 159.777 41.6521)" fill="black"/>
<ellipse cx="150.278" cy="44.9319" rx="3.30407" ry="1.70181" transform="rotate(-9.54866 150.278 44.9319)" fill="black"/>
<ellipse cx="135.55" cy="37.0549" rx="3.30407" ry="1.70181" transform="rotate(-9.54866 135.55 37.0549)" fill="black"/>
<ellipse cx="142.936" cy="41.1223" rx="3.30407" ry="1.70181" transform="rotate(-9.54866 142.936 41.1223)" fill="black"/>
<ellipse cx="133.436" cy="44.4021" rx="3.30407" ry="1.70181" transform="rotate(-9.54866 133.436 44.4021)" fill="black"/>
<ellipse cx="107.616" cy="50.2493" rx="3.30407" ry="1.70181" transform="rotate(-9.54866 107.616 50.2493)" fill="black"/>
<ellipse cx="115.001" cy="54.3171" rx="3.30407" ry="1.70181" transform="rotate(-9.54866 115.001 54.3171)" fill="black"/>
<ellipse cx="105.501" cy="57.5969" rx="3.30407" ry="1.70181" transform="rotate(-9.54866 105.501 57.5969)" fill="black"/>
<ellipse cx="90.7742" cy="49.72" rx="3.30407" ry="1.70181" transform="rotate(-9.54866 90.7742 49.72)" fill="black"/>
<ellipse cx="98.1592" cy="53.7874" rx="3.30407" ry="1.70181" transform="rotate(-9.54866 98.1592 53.7874)" fill="black"/>
<ellipse cx="88.6597" cy="57.0671" rx="3.30407" ry="1.70181" transform="rotate(-9.54866 88.6597 57.0671)" fill="black"/>
<ellipse cx="99.8243" cy="63.6848" rx="3.30407" ry="1.70181" transform="rotate(-9.54866 99.8243 63.6848)" fill="black"/>
<ellipse cx="107.209" cy="67.7522" rx="3.30407" ry="1.70181" transform="rotate(-9.54866 107.209 67.7522)" fill="black"/>
<ellipse cx="97.71" cy="71.032" rx="3.30407" ry="1.70181" transform="rotate(-9.54866 97.71 71.032)" fill="black"/>
<ellipse cx="82.983" cy="63.1545" rx="3.30407" ry="1.70181" transform="rotate(-9.54866 82.983 63.1545)" fill="black"/>
<ellipse cx="90.368" cy="67.2224" rx="3.30407" ry="1.70181" transform="rotate(-9.54866 90.368 67.2224)" fill="black"/>
<ellipse cx="80.868" cy="70.5017" rx="3.30407" ry="1.70181" transform="rotate(-9.54866 80.868 70.5017)" fill="black"/>
<ellipse cx="144.427" cy="49.9871" rx="3.30407" ry="1.70181" transform="rotate(-9.54866 144.427 49.9871)" fill="black"/>
<ellipse cx="151.812" cy="54.0545" rx="3.30407" ry="1.70181" transform="rotate(-9.54866 151.812 54.0545)" fill="black"/>
<ellipse cx="142.313" cy="57.3337" rx="3.30407" ry="1.70181" transform="rotate(-9.54866 142.313 57.3337)" fill="black"/>
<ellipse cx="127.586" cy="49.4568" rx="3.30407" ry="1.70181" transform="rotate(-9.54866 127.586 49.4568)" fill="black"/>
<ellipse cx="134.971" cy="53.5247" rx="3.30407" ry="1.70181" transform="rotate(-9.54866 134.971 53.5247)" fill="black"/>
<ellipse cx="125.471" cy="56.8045" rx="3.30407" ry="1.70181" transform="rotate(-9.54866 125.471 56.8045)" fill="black"/>
<ellipse cx="136.636" cy="63.4221" rx="3.30407" ry="1.70181" transform="rotate(-9.54866 136.636 63.4221)" fill="black"/>
<ellipse cx="144.021" cy="67.4895" rx="3.30407" ry="1.70181" transform="rotate(-9.54866 144.021 67.4895)" fill="black"/>
<ellipse cx="134.521" cy="70.7688" rx="3.30407" ry="1.70181" transform="rotate(-9.54866 134.521 70.7688)" fill="black"/>
<ellipse cx="119.794" cy="62.8919" rx="3.30407" ry="1.70181" transform="rotate(-9.54866 119.794 62.8919)" fill="black"/>
<ellipse cx="127.179" cy="66.9597" rx="3.30407" ry="1.70181" transform="rotate(-9.54866 127.179 66.9597)" fill="black"/>
<ellipse cx="117.679" cy="70.239" rx="3.30407" ry="1.70181" transform="rotate(-9.54866 117.679 70.239)" fill="black"/>
</svg>
