<svg width="165" height="722" viewBox="0 0 165 722" fill="none" xmlns="http://www.w3.org/2000/svg">
<line y1="-4" x2="125.052" y2="-4" transform="matrix(-0.284218 -0.95876 0.273811 -0.961784 40.2642 711.379)" stroke="black" stroke-width="8"/>
<line y1="-4" x2="82.0384" y2="-4" transform="matrix(-0.284218 -0.95876 0.273811 -0.961784 159.343 82.8037)" stroke="black" stroke-width="8"/>
<line y1="-4" x2="226.582" y2="-4" transform="matrix(-0.284218 -0.95876 0.273811 -0.961784 69.0186 713.544)" stroke="black" stroke-width="8"/>
<line y1="-4" x2="332.06" y2="-4" transform="matrix(-0.284218 -0.95876 0.273811 -0.961784 98.4485 713.385)" stroke="black" stroke-width="8"/>
<line y1="-4" x2="409.463" y2="-4" transform="matrix(-0.284218 -0.95876 0.273811 -0.961784 160.185 395.699)" stroke="black" stroke-width="8"/>
<line y1="-4" x2="332.06" y2="-4" transform="matrix(-0.284218 -0.95876 0.273811 -0.961784 161.714 319.135)" stroke="black" stroke-width="8"/>
<line y1="-4" x2="248.076" y2="-4" transform="matrix(-0.284218 -0.95876 0.273811 -0.961784 160.744 240.359)" stroke="black" stroke-width="8"/>
<line y1="-4" x2="163.107" y2="-4" transform="matrix(-0.284218 -0.95876 0.273811 -0.961784 159.499 161.583)" stroke="black" stroke-width="8"/>
<line y1="-4" x2="430.723" y2="-4" transform="matrix(-0.284218 -0.95876 0.273811 -0.961784 125.976 713.236)" stroke="black" stroke-width="8"/>
<line y1="-4" x2="525.447" y2="-4" transform="matrix(-0.284218 -0.95876 0.273811 -0.961784 152.405 713.093)" stroke="black" stroke-width="8"/>
<line y1="-4" x2="566.469" y2="-4" transform="matrix(-0.284218 -0.95876 0.273811 -0.961784 163.608 668.014)" stroke="black" stroke-width="8"/>
<line y1="-4" x2="566.469" y2="-4" transform="matrix(-0.284218 -0.95876 0.273811 -0.961784 164.271 589.229)" stroke="black" stroke-width="8"/>
<line y1="-4" x2="511.778" y2="-4" transform="matrix(-0.284218 -0.95876 0.273811 -0.961784 162.673 495.449)" stroke="black" stroke-width="8"/>
</svg>
