<svg width="139" height="451" viewBox="0 0 139 451" fill="none" xmlns="http://www.w3.org/2000/svg">
<line y1="-4" x2="80.0742" y2="-4" transform="matrix(-0.369234 -0.929337 0.359141 -0.933284 34.553 441.761)" stroke="black" stroke-width="8"/>
<line y1="-4" x2="52.5315" y2="-4" transform="matrix(-0.369234 -0.929337 0.359141 -0.933284 134.809 51.2632)" stroke="black" stroke-width="8"/>
<line y1="-4" x2="145.087" y2="-4" transform="matrix(-0.369234 -0.929337 0.359141 -0.933284 58.5833 443.072)" stroke="black" stroke-width="8"/>
<line y1="-4" x2="212.627" y2="-4" transform="matrix(-0.369234 -0.929337 0.359141 -0.933284 83.1807 442.939)" stroke="black" stroke-width="8"/>
<line y1="-4" x2="262.191" y2="-4" transform="matrix(-0.369234 -0.929337 0.359141 -0.933284 135.149 245.577)" stroke="black" stroke-width="8"/>
<line y1="-4" x2="212.627" y2="-4" transform="matrix(-0.369234 -0.929337 0.359141 -0.933284 136.516 198.027)" stroke="black" stroke-width="8"/>
<line y1="-4" x2="158.85" y2="-4" transform="matrix(-0.369234 -0.929337 0.359141 -0.933284 135.797 149.107)" stroke="black" stroke-width="8"/>
<line y1="-4" x2="104.442" y2="-4" transform="matrix(-0.369234 -0.929337 0.359141 -0.933284 134.848 100.187)" stroke="black" stroke-width="8"/>
<line y1="-4" x2="275.804" y2="-4" transform="matrix(-0.369234 -0.929337 0.359141 -0.933284 106.188 442.814)" stroke="black" stroke-width="8"/>
<line y1="-4" x2="336.458" y2="-4" transform="matrix(-0.369234 -0.929337 0.359141 -0.933284 128.278 442.695)" stroke="black" stroke-width="8"/>
<line y1="-4" x2="362.726" y2="-4" transform="matrix(-0.369234 -0.929337 0.359141 -0.933284 137.693 414.687)" stroke="black" stroke-width="8"/>
<line y1="-4" x2="362.726" y2="-4" transform="matrix(-0.369234 -0.929337 0.359141 -0.933284 138.339 365.759)" stroke="black" stroke-width="8"/>
<line y1="-4" x2="327.706" y2="-4" transform="matrix(-0.369234 -0.929337 0.359141 -0.933284 137.113 307.522)" stroke="black" stroke-width="8"/>
</svg>
