<svg width="621" height="300" viewBox="0 0 621 300" fill="none" xmlns="http://www.w3.org/2000/svg">
<ellipse cx="90.0398" cy="95.2895" rx="14.2979" ry="6.55107" transform="rotate(-8.7583 90.0398 95.2895)" fill="#F8E7D9"/>
<ellipse cx="121.372" cy="110.856" rx="14.2979" ry="6.55107" transform="rotate(-8.7583 121.372 110.856)" fill="#F8E7D9"/>
<ellipse cx="79.9498" cy="123.696" rx="14.2979" ry="6.55107" transform="rotate(-8.7583 79.9498 123.696)" fill="#F8E7D9"/>
<ellipse cx="17.4407" cy="93.5583" rx="14.2979" ry="6.55107" transform="rotate(-8.7583 17.4407 93.5583)" fill="#F8E7D9"/>
<ellipse cx="48.772" cy="109.124" rx="14.2979" ry="6.55107" transform="rotate(-8.7583 48.772 109.124)" fill="#F8E7D9"/>
<ellipse cx="7.3499" cy="121.965" rx="14.2979" ry="6.55107" transform="rotate(-8.7583 7.3499 121.965)" fill="#F8E7D9"/>
<ellipse cx="54.6546" cy="147.309" rx="14.2979" ry="6.55107" transform="rotate(-8.7583 54.6546 147.309)" fill="#F8E7D9"/>
<ellipse cx="85.9864" cy="162.877" rx="14.2979" ry="6.55107" transform="rotate(-8.7583 85.9864 162.877)" fill="#F8E7D9"/>
<ellipse cx="44.5645" cy="175.717" rx="14.2979" ry="6.55107" transform="rotate(-8.7583 44.5645 175.717)" fill="#F8E7D9"/>
<ellipse cx="13.3868" cy="161.145" rx="14.2979" ry="6.55107" transform="rotate(-8.7583 13.3868 161.145)" fill="#F8E7D9"/>
<ellipse cx="248.911" cy="93.5864" rx="14.2979" ry="6.55107" transform="rotate(-8.7583 248.911 93.5864)" fill="#F8E7D9"/>
<ellipse cx="280.242" cy="109.156" rx="14.2979" ry="6.55107" transform="rotate(-8.7583 280.242 109.156)" fill="#F8E7D9"/>
<ellipse cx="238.82" cy="121.996" rx="14.2979" ry="6.55107" transform="rotate(-8.7583 238.82 121.996)" fill="#F8E7D9"/>
<ellipse cx="176.311" cy="91.8547" rx="14.2979" ry="6.55107" transform="rotate(-8.7583 176.311 91.8547)" fill="#F8E7D9"/>
<ellipse cx="207.643" cy="107.424" rx="14.2979" ry="6.55107" transform="rotate(-8.7583 207.643 107.424)" fill="#F8E7D9"/>
<ellipse cx="166.221" cy="120.265" rx="14.2979" ry="6.55107" transform="rotate(-8.7583 166.221 120.265)" fill="#F8E7D9"/>
<ellipse cx="213.525" cy="145.607" rx="14.2979" ry="6.55107" transform="rotate(-8.7583 213.525 145.607)" fill="#F8E7D9"/>
<ellipse cx="244.857" cy="161.176" rx="14.2979" ry="6.55107" transform="rotate(-8.7583 244.857 161.176)" fill="#F8E7D9"/>
<ellipse cx="203.435" cy="174.015" rx="14.2979" ry="6.55107" transform="rotate(-8.7583 203.435 174.015)" fill="#F8E7D9"/>
<ellipse cx="140.926" cy="143.876" rx="14.2979" ry="6.55107" transform="rotate(-8.7583 140.926 143.876)" fill="#F8E7D9"/>
<ellipse cx="172.257" cy="159.443" rx="14.2979" ry="6.55107" transform="rotate(-8.7583 172.257 159.443)" fill="#F8E7D9"/>
<ellipse cx="130.835" cy="172.282" rx="14.2979" ry="6.55107" transform="rotate(-8.7583 130.835 172.282)" fill="#F8E7D9"/>
<ellipse cx="18.6556" cy="195.344" rx="14.2979" ry="6.55107" transform="rotate(-8.7583 18.6556 195.344)" fill="#F8E7D9"/>
<ellipse cx="49.9874" cy="210.912" rx="14.2979" ry="6.55107" transform="rotate(-8.7583 49.9874 210.912)" fill="#F8E7D9"/>
<ellipse cx="8.56523" cy="223.753" rx="14.2979" ry="6.55107" transform="rotate(-8.7583 8.56523 223.753)" fill="#F8E7D9"/>
<ellipse cx="14.6014" cy="262.933" rx="14.2979" ry="6.55107" transform="rotate(-8.7583 14.6014 262.933)" fill="#F8E7D9"/>
<ellipse cx="177.526" cy="193.645" rx="14.2979" ry="6.55107" transform="rotate(-8.7583 177.526 193.645)" fill="#F8E7D9"/>
<ellipse cx="208.857" cy="209.21" rx="14.2979" ry="6.55107" transform="rotate(-8.7583 208.857 209.21)" fill="#F8E7D9"/>
<ellipse cx="167.436" cy="222.051" rx="14.2979" ry="6.55107" transform="rotate(-8.7583 167.436 222.051)" fill="#F8E7D9"/>
<ellipse cx="104.926" cy="191.911" rx="14.2979" ry="6.55107" transform="rotate(-8.7583 104.926 191.911)" fill="#F8E7D9"/>
<ellipse cx="136.258" cy="207.479" rx="14.2979" ry="6.55107" transform="rotate(-8.7583 136.258 207.479)" fill="#F8E7D9"/>
<ellipse cx="94.8365" cy="220.319" rx="14.2979" ry="6.55107" transform="rotate(-8.7583 94.8365 220.319)" fill="#F8E7D9"/>
<ellipse cx="142.14" cy="245.662" rx="14.2979" ry="6.55107" transform="rotate(-8.7583 142.14 245.662)" fill="#F8E7D9"/>
<ellipse cx="173.472" cy="261.231" rx="14.2979" ry="6.55107" transform="rotate(-8.7583 173.472 261.231)" fill="#F8E7D9"/>
<ellipse cx="132.05" cy="274.072" rx="14.2979" ry="6.55107" transform="rotate(-8.7583 132.05 274.072)" fill="#F8E7D9"/>
<ellipse cx="69.5408" cy="243.93" rx="14.2979" ry="6.55107" transform="rotate(-8.7583 69.5408 243.93)" fill="#F8E7D9"/>
<ellipse cx="100.872" cy="259.499" rx="14.2979" ry="6.55107" transform="rotate(-8.7583 100.872 259.499)" fill="#F8E7D9"/>
<ellipse cx="59.4505" cy="272.338" rx="14.2979" ry="6.55107" transform="rotate(-8.7583 59.4505 272.338)" fill="#F8E7D9"/>
<ellipse cx="393.803" cy="95.0593" rx="14.2979" ry="6.55107" transform="rotate(-8.7583 393.803 95.0593)" fill="#F8E7D9"/>
<ellipse cx="425.135" cy="110.627" rx="14.2979" ry="6.55107" transform="rotate(-8.7583 425.135 110.627)" fill="#F8E7D9"/>
<ellipse cx="383.714" cy="123.467" rx="14.2979" ry="6.55107" transform="rotate(-8.7583 383.714 123.467)" fill="#F8E7D9"/>
<ellipse cx="321.204" cy="93.3261" rx="14.2979" ry="6.55107" transform="rotate(-8.7583 321.204 93.3261)" fill="#F8E7D9"/>
<ellipse cx="352.535" cy="108.895" rx="14.2979" ry="6.55107" transform="rotate(-8.7583 352.535 108.895)" fill="#F8E7D9"/>
<ellipse cx="311.114" cy="121.736" rx="14.2979" ry="6.55107" transform="rotate(-8.7583 311.114 121.736)" fill="#F8E7D9"/>
<ellipse cx="358.418" cy="147.079" rx="14.2979" ry="6.55107" transform="rotate(-8.7583 358.418 147.079)" fill="#F8E7D9"/>
<ellipse cx="389.75" cy="162.648" rx="14.2979" ry="6.55107" transform="rotate(-8.7583 389.75 162.648)" fill="#F8E7D9"/>
<ellipse cx="348.328" cy="175.487" rx="14.2979" ry="6.55107" transform="rotate(-8.7583 348.328 175.487)" fill="#F8E7D9"/>
<ellipse cx="285.818" cy="145.347" rx="14.2979" ry="6.55107" transform="rotate(-8.7583 285.818 145.347)" fill="#F8E7D9"/>
<ellipse cx="317.15" cy="160.916" rx="14.2979" ry="6.55107" transform="rotate(-8.7583 317.15 160.916)" fill="#F8E7D9"/>
<ellipse cx="275.728" cy="173.755" rx="14.2979" ry="6.55107" transform="rotate(-8.7583 275.728 173.755)" fill="#F8E7D9"/>
<ellipse cx="552.674" cy="93.3562" rx="14.2979" ry="6.55107" transform="rotate(-8.7583 552.674 93.3562)" fill="#F8E7D9"/>
<ellipse cx="584.005" cy="108.924" rx="14.2979" ry="6.55107" transform="rotate(-8.7583 584.005 108.924)" fill="#F8E7D9"/>
<ellipse cx="542.584" cy="121.764" rx="14.2979" ry="6.55107" transform="rotate(-8.7583 542.584 121.764)" fill="#F8E7D9"/>
<ellipse cx="480.075" cy="91.6247" rx="14.2979" ry="6.55107" transform="rotate(-8.7583 480.075 91.6247)" fill="#F8E7D9"/>
<ellipse cx="511.406" cy="107.192" rx="14.2979" ry="6.55107" transform="rotate(-8.7583 511.406 107.192)" fill="#F8E7D9"/>
<ellipse cx="469.984" cy="120.033" rx="14.2979" ry="6.55107" transform="rotate(-8.7583 469.984 120.033)" fill="#F8E7D9"/>
<ellipse cx="517.288" cy="145.377" rx="14.2979" ry="6.55107" transform="rotate(-8.7583 517.288 145.377)" fill="#F8E7D9"/>
<ellipse cx="548.62" cy="160.944" rx="14.2979" ry="6.55107" transform="rotate(-8.7583 548.62 160.944)" fill="#F8E7D9"/>
<ellipse cx="507.199" cy="173.785" rx="14.2979" ry="6.55107" transform="rotate(-8.7583 507.199 173.785)" fill="#F8E7D9"/>
<ellipse cx="444.689" cy="143.645" rx="14.2979" ry="6.55107" transform="rotate(-8.7583 444.689 143.645)" fill="#F8E7D9"/>
<ellipse cx="476.02" cy="159.213" rx="14.2979" ry="6.55107" transform="rotate(-8.7583 476.02 159.213)" fill="#F8E7D9"/>
<ellipse cx="434.599" cy="172.053" rx="14.2979" ry="6.55107" transform="rotate(-8.7583 434.599 172.053)" fill="#F8E7D9"/>
<ellipse cx="322.419" cy="195.115" rx="14.2979" ry="6.55107" transform="rotate(-8.7583 322.419 195.115)" fill="#F8E7D9"/>
<ellipse cx="353.75" cy="210.682" rx="14.2979" ry="6.55107" transform="rotate(-8.7583 353.75 210.682)" fill="#F8E7D9"/>
<ellipse cx="312.329" cy="223.522" rx="14.2979" ry="6.55107" transform="rotate(-8.7583 312.329 223.522)" fill="#F8E7D9"/>
<ellipse cx="249.819" cy="193.382" rx="14.2979" ry="6.55107" transform="rotate(-8.7583 249.819 193.382)" fill="#F8E7D9"/>
<ellipse cx="281.15" cy="208.95" rx="14.2979" ry="6.55107" transform="rotate(-8.7583 281.15 208.95)" fill="#F8E7D9"/>
<ellipse cx="239.729" cy="221.791" rx="14.2979" ry="6.55107" transform="rotate(-8.7583 239.729 221.791)" fill="#F8E7D9"/>
<ellipse cx="287.033" cy="247.135" rx="14.2979" ry="6.55107" transform="rotate(-8.7583 287.033 247.135)" fill="#F8E7D9"/>
<ellipse cx="318.365" cy="262.703" rx="14.2979" ry="6.55107" transform="rotate(-8.7583 318.365 262.703)" fill="#F8E7D9"/>
<ellipse cx="276.944" cy="275.543" rx="14.2979" ry="6.55107" transform="rotate(-8.7583 276.944 275.543)" fill="#F8E7D9"/>
<ellipse cx="214.434" cy="245.402" rx="14.2979" ry="6.55107" transform="rotate(-8.7583 214.434 245.402)" fill="#F8E7D9"/>
<ellipse cx="245.765" cy="260.971" rx="14.2979" ry="6.55107" transform="rotate(-8.7583 245.765 260.971)" fill="#F8E7D9"/>
<ellipse cx="204.343" cy="273.811" rx="14.2979" ry="6.55107" transform="rotate(-8.7583 204.343 273.811)" fill="#F8E7D9"/>
<ellipse cx="481.289" cy="193.412" rx="14.2979" ry="6.55107" transform="rotate(-8.7583 481.289 193.412)" fill="#F8E7D9"/>
<ellipse cx="512.621" cy="208.98" rx="14.2979" ry="6.55107" transform="rotate(-8.7583 512.621 208.98)" fill="#F8E7D9"/>
<ellipse cx="471.2" cy="221.822" rx="14.2979" ry="6.55107" transform="rotate(-8.7583 471.2 221.822)" fill="#F8E7D9"/>
<ellipse cx="408.69" cy="191.681" rx="14.2979" ry="6.55107" transform="rotate(-8.7583 408.69 191.681)" fill="#F8E7D9"/>
<ellipse cx="440.021" cy="207.249" rx="14.2979" ry="6.55107" transform="rotate(-8.7583 440.021 207.249)" fill="#F8E7D9"/>
<ellipse cx="398.599" cy="220.089" rx="14.2979" ry="6.55107" transform="rotate(-8.7583 398.599 220.089)" fill="#F8E7D9"/>
<ellipse cx="445.904" cy="245.433" rx="14.2979" ry="6.55107" transform="rotate(-8.7583 445.904 245.433)" fill="#F8E7D9"/>
<ellipse cx="477.236" cy="261.001" rx="14.2979" ry="6.55107" transform="rotate(-8.7583 477.236 261.001)" fill="#F8E7D9"/>
<ellipse cx="435.814" cy="273.84" rx="14.2979" ry="6.55107" transform="rotate(-8.7583 435.814 273.84)" fill="#F8E7D9"/>
<ellipse cx="373.304" cy="243.702" rx="14.2979" ry="6.55107" transform="rotate(-8.7583 373.304 243.702)" fill="#F8E7D9"/>
<ellipse cx="404.636" cy="259.27" rx="14.2979" ry="6.55107" transform="rotate(-8.7583 404.636 259.27)" fill="#F8E7D9"/>
<ellipse cx="363.214" cy="272.108" rx="14.2979" ry="6.55107" transform="rotate(-8.7583 363.214 272.108)" fill="#F8E7D9"/>
</svg>
